<?xml version="1.0" encoding="UTF-8"?>
<svg version="1.1" xmlns="http://www.w3.org/2000/svg" width="291" height="388">
<path d="M0 0 C0.93742035 -0.00511093 1.8748407 -0.01022186 2.84066772 -0.01548767 C5.94112542 -0.02938745 9.04136052 -0.02842468 12.1418457 -0.02612305 C14.31118349 -0.03001359 16.48052052 -0.034349 18.64985657 -0.03910828 C23.2052354 -0.04657413 27.76053677 -0.04627933 32.31591797 -0.04101562 C38.10634832 -0.03526154 43.89645455 -0.05205125 49.68683147 -0.0753603 C54.17490951 -0.09022805 58.6629122 -0.09095108 63.15101051 -0.08785057 C65.28248542 -0.08835862 67.41396515 -0.09349756 69.54541588 -0.10366249 C93.02544221 -0.20178261 113.43410396 2.54607228 133.63012695 15.2746582 C134.8850293 16.05776367 134.8850293 16.05776367 136.1652832 16.85668945 C148.79789117 25.65718354 155.47825822 39.6832586 158.21606445 54.4309082 C159.76146243 67.48093554 157.02810668 79.53443738 149.25512695 90.0871582 C146.35667105 93.65257063 143.67923296 96.10885732 139.63012695 98.2746582 C138.97012695 98.2746582 138.31012695 98.2746582 137.63012695 98.2746582 C137.63012695 98.9346582 137.63012695 99.5946582 137.63012695 100.2746582 C135.92435353 100.92722277 134.21536606 101.57138862 132.50512695 102.2121582 C131.07813477 102.75163086 131.07813477 102.75163086 129.62231445 103.30200195 C123.69583969 105.2284931 117.98982053 105.46731136 111.81762695 105.4621582 C111.02243652 105.46280273 110.22724609 105.46344727 109.40795898 105.46411133 C103.88909514 105.41436128 98.94586385 104.84969136 93.63012695 103.2746582 C95.13385999 100.26719213 97.31228138 100.17516681 100.44262695 99.0871582 C106.44597812 96.86982343 111.73020604 94.08157995 117.16918945 90.7277832 C119.63012695 89.2746582 119.63012695 89.2746582 122.63012695 88.2746582 C123.67670469 86.42702898 123.67670469 86.42702898 124.63012695 84.2746582 C126.13256209 82.19834863 127.70786585 80.19274631 129.2902832 78.17700195 C133.07007127 72.81036409 132.03991875 65.52751581 131.63012695 59.2746582 C130.92373298 56.57293059 130.00039248 54.75167666 128.63012695 52.2746582 C127.95735979 50.6104447 127.2880586 48.94479238 126.63012695 47.2746582 C125.97012695 47.2746582 125.31012695 47.2746582 124.63012695 47.2746582 C123.89407227 46.52442383 123.15801758 45.77418945 122.3996582 45.0012207 C112.84664044 35.59641619 98.6668823 32.47963392 85.66918945 32.18481445 C68.99625691 32.8442915 56.94080518 40.00586415 45.50512695 51.98950195 C26.31421998 75.37841983 24.14250034 108.77284856 26.96411133 137.69848633 C28.91971661 153.56273792 33.02342089 168.83297316 38.25512695 183.8996582 C42.80405206 197.37531408 44.07634292 210.5372913 44.25512695 224.6496582 C44.2994054 226.95804303 44.34851096 229.2662919 44.39802551 231.5745697 C44.43006392 233.07670623 44.46068014 234.57887385 44.48979187 236.08106995 C44.65093758 244.15869101 45.08349019 252.2146736 45.63012695 260.2746582 C46.19989258 260.11739258 46.7696582 259.96012695 47.35668945 259.7980957 C51.74871754 258.78687274 56.41725031 258.14793893 60.5480957 260.2512207 C62.19262695 261.5246582 62.19262695 261.5246582 64.63012695 264.2746582 C64.63012695 265.5946582 64.63012695 266.9146582 64.63012695 268.2746582 C63.8102832 268.62657227 62.99043945 268.97848633 62.14575195 269.34106445 C61.0680957 269.83477539 59.99043945 270.32848633 58.88012695 270.8371582 C57.8127832 271.31282227 56.74543945 271.78848633 55.64575195 272.27856445 C51.90677843 274.75345496 49.81686004 276.97585318 48.63012695 281.2746582 C48.41643504 285.90011672 48.86973177 290.42202949 49.31762695 295.0246582 C49.55017305 297.79974746 49.76419214 300.5761783 49.9777832 303.3527832 C50.03500549 304.07328857 50.09222778 304.79379395 50.15118408 305.53613281 C50.79874415 313.93983841 51.03846842 322.35064586 51.25512695 330.7746582 C51.28514297 331.85281799 51.28514297 331.85281799 51.31576538 332.95275879 C51.41150185 336.39453653 51.49598773 339.83598457 51.55688477 343.27856445 C51.60670323 345.99665983 51.67357539 348.71018705 51.75805664 351.42700195 C51.78655858 352.76161985 51.81425945 354.09625515 51.84106445 355.4309082 C51.87248535 356.60459961 51.90390625 357.77829102 51.9362793 358.98754883 C51.58597627 362.74869717 50.61504032 365.07703166 48.63012695 368.2746582 C45.94195518 370.06677272 44.66356015 370.65418055 41.64575195 371.30981445 C40.87489258 371.47932617 40.1040332 371.64883789 39.30981445 371.82348633 C38.50801758 371.99299805 37.7062207 372.16250977 36.88012695 372.3371582 C36.09379883 372.51053711 35.3074707 372.68391602 34.49731445 372.86254883 C26.67865545 374.55745747 19.1413215 375.43771515 11.14575195 375.4777832 C10.24951111 375.48348328 9.35327026 375.48918335 8.42987061 375.49505615 C6.54057988 375.50446174 4.65127307 375.51102236 2.76196289 375.51489258 C-0.09738436 375.524582 -2.956007 375.55564125 -5.81518555 375.5871582 C-30.4542805 375.73139361 -30.4542805 375.73139361 -38.1862793 368.18481445 C-41.12872524 363.43611456 -39.88938356 357.79172321 -38.81518555 352.5871582 C-38.31616997 350.5238129 -37.80718218 348.46286969 -37.29174805 346.40356445 C-31.65438862 322.4447869 -29.2849659 296.8396131 -28.36987305 272.2746582 C-28.32620605 271.18185547 -28.28253906 270.08905273 -28.23754883 268.96313477 C-27.89256935 260.13305404 -27.63003473 251.30337888 -27.42315674 242.46911621 C-27.36896244 240.23715556 -27.30800652 238.0054472 -27.24633789 235.77368164 C-27.14760322 232.08467242 -27.07812119 228.39607453 -27.02883911 224.70608521 C-27.00636068 223.30379856 -26.97529944 221.90162082 -26.93527222 220.49972534 C-26.88155427 218.5463108 -26.86325208 216.5920201 -26.84643555 214.63793945 C-26.82661621 213.52717041 -26.80679687 212.41640137 -26.78637695 211.27197266 C-27.55983127 207.29887698 -29.32121067 205.83824095 -32.36987305 203.2746582 C-34.3653774 201.96283737 -34.3653774 201.96283737 -36.36987305 201.0871582 C-37.05049805 200.76875977 -37.73112305 200.45036133 -38.43237305 200.12231445 C-40.72569208 199.11898737 -43.02585756 198.15366401 -45.36987305 197.2746582 C-44.87221259 193.59197081 -44.30701346 191.62437053 -41.36987305 189.2746582 C-37.03452869 187.10698603 -31.14824855 188.22781138 -26.36987305 188.2746582 C-25.32390256 171.12610426 -25.2841228 154.01611348 -25.38640404 136.84525299 C-25.41476015 132.00165253 -25.43140323 127.15805148 -25.44587708 122.31439209 C-25.48815986 108.56050306 -25.53625773 94.80670363 -25.61669922 81.05297852 C-25.66127962 73.41455444 -25.69147011 65.77621604 -25.70555669 58.13767314 C-25.71358814 54.11446997 -25.72892475 50.09159941 -25.76222801 46.06851959 C-25.79342609 42.29581972 -25.80574659 38.52351827 -25.80401039 34.75069427 C-25.80795772 32.72264072 -25.83181485 30.69465587 -25.85644531 28.66674805 C-25.82966429 20.55845176 -25.2981465 12.61995651 -19.61963177 6.3386116 C-13.5774814 0.73802321 -7.97246209 -0.02245803 0 0 Z " fill="#1C5A1C" transform="translate(45.369873046875,12.725341796875)"/>
<path d="M0 0 C0.99 0 1.98 0 3 0 C8.19985981 27.61969626 3.11982078 57.95966985 -12.64746094 81.32543945 C-13.74673994 82.8965433 -14.8728951 84.44873724 -16 86 C-16.64710938 86.91136719 -17.29421875 87.82273437 -17.9609375 88.76171875 C-25.0813543 98.250764 -34.89472911 105.84982535 -45 112 C-45.66 112 -46.32 112 -47 112 C-47 112.66 -47 113.32 -47 114 C-49.1328125 115.62890625 -49.1328125 115.62890625 -52.125 117.5625 C-53.21941406 118.27535156 -54.31382812 118.98820312 -55.44140625 119.72265625 C-57.79984195 121.23604559 -60.16330905 122.74146984 -62.52734375 124.24609375 C-69.87367232 128.92573652 -77.06747805 133.71324749 -84 139 C-84.67933594 139.51175781 -85.35867187 140.02351562 -86.05859375 140.55078125 C-92.32725114 145.55222618 -97.0143802 152.47878464 -98.44140625 160.47265625 C-98.88815169 170.02724415 -94.82677028 176.576513 -88.6953125 183.6640625 C-78.58328746 194.09915543 -66.74017378 202.52362622 -55 211 C-54.60167969 210.44570313 -54.20335937 209.89140625 -53.79296875 209.3203125 C-53.26316406 208.59585938 -52.73335938 207.87140625 -52.1875 207.125 C-51.66542969 206.40570313 -51.14335937 205.68640625 -50.60546875 204.9453125 C-49 203 -49 203 -46 201 C-43.95703125 200.8046875 -43.95703125 200.8046875 -41.8125 200.875 C-40.554375 200.91625 -39.29625 200.9575 -38 201 C-38.14308594 202.75376953 -38.14308594 202.75376953 -38.2890625 204.54296875 C-38.40165397 206.09110142 -38.51359914 207.6392812 -38.625 209.1875 C-38.68945312 209.95642578 -38.75390625 210.72535156 -38.8203125 211.51757812 C-39.11525999 215.81275092 -39.32809378 219.20681272 -37 223 C-34.58508333 225.23570228 -34.58508333 225.23570228 -31.625 227.25 C-30.5323566 228.03748925 -29.43991414 228.82525738 -28.34765625 229.61328125 C-27.78965332 230.0098291 -27.23165039 230.40637695 -26.65673828 230.81494141 C-23.0775935 233.37509006 -19.58053334 236.04711764 -16.06640625 238.6953125 C-13.9788143 240.26433065 -11.88204171 241.82119118 -9.77734375 243.3671875 C-3.9565506 247.68396477 1.47966213 252.20109611 6.625 257.3125 C7.12193359 257.80403564 7.61886719 258.29557129 8.13085938 258.80200195 C12.11834535 262.86898877 15.42699295 266.54304388 15.4375 272.4375 C15.25614607 276.99401759 14.07322096 279.53277635 11 283 C5.06084656 288 5.06084656 288 2 288 C2 288.66 2 289.32 2 290 C-2.2993131 292.08031279 -6.6335606 294.06460524 -11 296 C-11.93457031 296.42539062 -12.86914062 296.85078125 -13.83203125 297.2890625 C-24.03990086 301.34884469 -38.13477401 302.34587806 -48.5625 298.375 C-50.06255281 297.62366006 -51.54239873 296.83070373 -53 296 C-53.86238281 295.56429688 -54.72476563 295.12859375 -55.61328125 294.6796875 C-61.61368048 291.57339879 -67.20741133 287.96416363 -72.78515625 284.16015625 C-75.12916066 282.58514478 -77.47879816 281.0563634 -79.87109375 279.55859375 C-80.83921997 278.95011597 -80.83921997 278.95011597 -81.8269043 278.3293457 C-83.09183836 277.53717613 -84.36016077 276.75038709 -85.63208008 275.96948242 C-87.12227923 275.03197339 -88.56650378 274.02210825 -90 273 C-90 272.34 -90 271.68 -90 271 C-91.10021484 270.60941406 -91.10021484 270.60941406 -92.22265625 270.2109375 C-97.13351748 268.06977437 -100.92234746 264.42241222 -105 261 C-105.54930176 260.54238281 -106.09860352 260.08476562 -106.66455078 259.61328125 C-133.70429458 237.04360419 -152.62798979 210.08967155 -167.02490234 178.13916016 C-167.8771318 176.26954711 -168.77292572 174.41991642 -169.67578125 172.57421875 C-176.42473599 157.61245148 -173.55586792 141.83705768 -168 127 C-166.87763681 124.14470805 -165.62282127 121.59988321 -164 119 C-163.55527344 118.22785156 -163.11054688 117.45570313 -162.65234375 116.66015625 C-155.43077395 105.14468008 -144.5941506 98.39122793 -132 94 C-130.67319214 93.52397339 -130.67319214 93.52397339 -129.31958008 93.03833008 C-118.10395414 89.29149794 -106.52681142 87.85976814 -94.86450195 86.14819336 C-65.7822132 81.84186019 -36.24957503 72.3046227 -17.90258789 47.73583984 C-7.02677304 32.82205927 -1.92762587 18.33780924 0 0 Z " fill="#1C5A1C" transform="translate(276,87)"/>
<path d="M0 0 C2.63331916 -0.004351 5.26492762 -0.04069619 7.89794922 -0.07861328 C18.9151842 -0.15154382 28.48932475 1.11125682 39.03466797 4.37060547 C40.28723389 4.74862305 41.5397998 5.12664063 42.83032227 5.51611328 C61.38429642 11.32298882 80.8503198 25.7659543 89.96044922 43.13574219 C99.04606238 61.83229306 99.65625605 81.74387217 93.03466797 101.37060547 C90.17527212 109.60369352 86.42823091 117.46901864 81.03466797 124.37060547 C80.37466797 124.37060547 79.71466797 124.37060547 79.03466797 124.37060547 C78.76396484 124.96486328 78.49326172 125.55912109 78.21435547 126.17138672 C68.92046882 143.49740719 42.25964716 153.98188481 24.41357422 159.48779297 C15.21066193 161.95850199 5.8913674 163.42239129 -3.51977539 164.86889648 C-16.48155541 166.87337653 -29.51480812 169.14574903 -41.96533203 173.37060547 C-41.96533203 174.03060547 -41.96533203 174.69060547 -41.96533203 175.37060547 C-43.01720703 175.92748047 -44.06908203 176.48435547 -45.15283203 177.05810547 C-48.64838942 179.03231703 -51.16550803 181.4907865 -53.96533203 184.37060547 C-54.62533203 184.37060547 -55.28533203 184.37060547 -55.96533203 184.37060547 C-56.21283203 184.94810547 -56.46033203 185.52560547 -56.71533203 186.12060547 C-58.14833192 188.70000526 -59.7495788 190.43182139 -61.96533203 192.37060547 C-62.62533203 192.37060547 -63.28533203 192.37060547 -63.96533203 192.37060547 C-69.11623018 173.843867 -73.20659944 155.64715536 -73.96533203 136.37060547 C-74.00658203 135.41541016 -74.04783203 134.46021484 -74.09033203 133.47607422 C-74.45398416 116.8617176 -72.60909256 100.30048179 -62.96533203 86.37060547 C-61.97533203 86.70060547 -60.98533203 87.03060547 -59.96533203 87.37060547 C-58.78955078 89.96044922 -58.78955078 89.96044922 -57.65283203 93.30810547 C-52.18117543 108.18062014 -43.22782259 119.98210026 -28.96533203 127.37060547 C-13.40381788 133.99096706 8.10482572 133.58164816 24.03466797 128.37060547 C40.33543111 121.55862178 49.36701776 111.17253032 56.01904297 95.30029297 C60.94285826 81.09697964 57.81513198 65.11680611 52.22216797 51.55810547 C49.3774797 45.69940226 45.97133133 39.27382164 41.31982422 34.67529297 C40.03466797 33.37060547 40.03466797 33.37060547 40.03466797 31.37060547 C39.46232422 31.11537109 38.88998047 30.86013672 38.30029297 30.59716797 C35.79162794 29.23902862 33.92799948 27.62664117 31.78466797 25.74560547 C15.70128882 12.73247491 -6.65194917 6.09207859 -26.96533203 4.37060547 C-26.96533203 3.71060547 -26.96533203 3.05060547 -26.96533203 2.37060547 C-17.99131296 0.04813676 -9.20983121 -0.00169766 0 0 Z " fill="#CF0000" transform="translate(161.96533203125,-0.37060546875)"/>
<path d="M0 0 C1.08368866 -0.00145523 2.16737732 -0.00291046 3.28390503 -0.00440979 C5.56820371 -0.00275722 7.85251426 0.00873153 10.13671875 0.02954102 C13.58643376 0.05833704 17.03459282 0.05016553 20.484375 0.03710938 C32.17804881 0.04857443 43.16404666 0.44526396 54.4921875 3.49609375 C56.27508179 3.96233154 56.27508179 3.96233154 58.09399414 4.43798828 C64.46931645 6.16670848 69.7930672 8.53201115 75.3359375 12.11328125 C77.64619227 13.65249487 77.64619227 13.65249487 80.9296875 15.18359375 C83.31377551 16.404712 84.84868135 17.39605811 86.4921875 19.49609375 C86.4921875 20.15609375 86.4921875 20.81609375 86.4921875 21.49609375 C87.08 21.75003906 87.6678125 22.00398438 88.2734375 22.265625 C96.10666988 26.60975915 101.02859326 36.25684218 103.8984375 44.4140625 C104.94684629 48.09039071 105.29938363 51.68675676 105.4921875 55.49609375 C105.57146484 57.03523438 105.57146484 57.03523438 105.65234375 58.60546875 C106.00218178 71.56468636 102.72743314 80.71607667 93.83203125 90.28125 C83.34479576 99.97512489 70.9037054 101.69627678 57.14453125 101.76171875 C54.4921875 101.49609375 54.4921875 101.49609375 52.4921875 99.49609375 C53.61496094 98.93921875 54.73773438 98.38234375 55.89453125 97.80859375 C68.23583414 91.57110219 79.74314925 85.3874753 84.4921875 71.49609375 C86.15930072 61.64084618 84.20215418 53.64641964 78.4921875 45.49609375 C72.5604128 38.4446668 64.96188881 34.78878726 56.4921875 31.49609375 C55.82880371 31.22611572 55.16541992 30.9561377 54.48193359 30.67797852 C48.33119158 28.36268803 42.65314408 27.99021361 36.1171875 28.05859375 C35.09858643 28.06689209 34.07998535 28.07519043 33.03051758 28.08374023 C16.9486324 28.44639249 6.55024554 36.09261863 -4.96484375 46.828125 C-8.9250515 50.98299734 -11.79285079 55.45912531 -14.5078125 60.49609375 C-14.95640625 61.31207031 -15.405 62.12804687 -15.8671875 62.96875 C-18.78674607 68.79885616 -20.57850391 74.84648673 -22.2578125 81.12109375 C-22.46873535 81.90871094 -22.6796582 82.69632812 -22.89697266 83.5078125 C-25.46860168 93.61712036 -25.69424527 103.55069561 -25.69311523 113.93237305 C-25.69529093 116.16149315 -25.71347129 118.3901083 -25.73242188 120.61914062 C-25.78262298 133.10415505 -24.33972637 145.09823103 -21.3828125 157.24609375 C-21.17688477 158.10589844 -20.97095703 158.96570313 -20.75878906 159.8515625 C-18.08578709 170.66629072 -14.67735155 181.27128226 -11.27636719 191.875 C-9.81158857 196.87050928 -9.40553702 201.28004452 -9.5078125 206.49609375 C-12.90621857 203.25561705 -15.65026015 200.0628885 -18.1953125 196.12109375 C-18.88496094 195.06019531 -19.57460937 193.99929687 -20.28515625 192.90625 C-20.64722168 192.34695801 -21.00928711 191.78766602 -21.38232422 191.21142578 C-22.5072481 189.49695394 -23.66016028 187.80529063 -24.82421875 186.1171875 C-40.19902307 163.72915028 -52.87776139 139.94797229 -59.5078125 113.49609375 C-59.77634033 112.45259766 -60.04486816 111.40910156 -60.3215332 110.33398438 C-62.44331987 101.4263828 -63.03128754 92.88043078 -62.9453125 83.74609375 C-62.94193878 83.04709961 -62.93856506 82.34810547 -62.93508911 81.62792969 C-62.7770298 58.96565075 -57.48527689 38.96107408 -42.5078125 21.49609375 C-41.89421875 20.77035156 -41.280625 20.04460938 -40.6484375 19.296875 C-30.10694619 7.83187697 -15.5755497 -0.17119952 0 0 Z " fill="#D00000" transform="translate(95.5078125,14.50390625)"/>
<path d="M0 0 C2.9733379 1.42897116 5.12720446 2.86013292 7.50390625 5.16015625 C8.48302979 6.09686157 8.48302979 6.09686157 9.48193359 7.05249023 C10.16852051 7.71579346 10.85510742 8.37909668 11.5625 9.0625 C18.69625414 15.85336277 25.97193564 22.22895173 33.859375 28.14453125 C34.77203125 28.83933594 35.6846875 29.53414062 36.625 30.25 C37.44226563 30.85328125 38.25953125 31.4565625 39.1015625 32.078125 C42.56557915 35.58490729 42.11382245 40.01301655 42.11329651 44.75032043 C42.10813522 45.4682225 42.10297394 46.18612457 42.09765625 46.92578125 C42.0962413 47.67337204 42.09482635 48.42096283 42.09336853 49.19120789 C42.08779764 51.56501365 42.0752506 53.93872303 42.0625 56.3125 C42.05748123 57.92773301 42.05291899 59.5429675 42.04882812 61.15820312 C42.03783775 65.10550555 42.02059332 69.05273647 42 73 C42.54052002 72.78778809 43.08104004 72.57557617 43.63793945 72.35693359 C44.70854614 71.94435303 44.70854614 71.94435303 45.80078125 71.5234375 C46.50630127 71.24935059 47.21182129 70.97526367 47.9387207 70.69287109 C52.09654135 69.29527604 54.95052241 69.49807594 58.875 71.375 C59.57625 71.91125 60.2775 72.4475 61 73 C61 73.66 61 74.32 61 75 C59.2893067 76.14439483 57.52950097 77.21583975 55.75 78.25 C49.66638619 82.01258199 49.66638619 82.01258199 46 88 C45.57783019 94.18606704 46.04796937 100.36597514 46.66088867 106.52294922 C48.04203508 120.45143893 48.38034115 134.38977029 48.6875 148.375 C48.71214325 149.41911041 48.7367865 150.46322083 48.76217651 151.53897095 C48.83115916 154.53370036 48.89187986 157.52846474 48.94921875 160.5234375 C48.96990417 161.43489029 48.9905896 162.34634308 49.01190186 163.28541565 C49.0324765 164.54671547 49.0324765 164.54671547 49.0534668 165.83349609 C49.06741989 166.5686142 49.08137299 167.3037323 49.0957489 168.06112671 C49 170 49 170 48 173 C31.27069713 177.50404308 11.66997088 175.97533712 -3.5625 167.53125 C-7.94124538 164.78049969 -10.52029712 162.95478922 -11.78125 157.81640625 C-12.42511966 151.64139627 -10.89764751 145.59049228 -9.73910522 139.55114746 C-7.12692206 125.84349254 -5.14104094 112.12674865 -3.6875 98.25 C-3.60682281 97.49038971 -3.52614563 96.73077942 -3.44302368 95.94815063 C-1.83419113 80.6722264 -0.87053732 65.45696169 -0.68359375 50.09765625 C-0.66294483 48.63935364 -0.64194682 47.18105593 -0.62062073 45.72276306 C-0.56621724 41.94019626 -0.51645845 38.15758311 -0.46777344 34.37493896 C-0.41694962 30.49275741 -0.36158604 26.61064064 -0.30664062 22.72851562 C-0.20006354 15.15239907 -0.0984088 7.57622753 0 0 Z " fill="#12972A" transform="translate(46,204)"/>
<path d="M0 0 C4.49872603 0.5707339 8.0277011 1.76972251 12.125 3.6875 C24.26323145 9.04523243 36.44845896 12.62816234 49.62588501 14.32566833 C64.98164365 16.30976163 75.69934022 18.9357557 87 30 C89.67725073 32.41340818 89.67725073 32.41340818 93 33 C93.36351562 32.18595703 93.36351562 32.18595703 93.734375 31.35546875 C97.23529412 23.88235294 97.23529412 23.88235294 101 22 C102.32 22 103.64 22 105 22 C104.95359375 23.15757812 104.9071875 24.31515625 104.859375 25.5078125 C104.82183752 27.04684906 104.78543949 28.5859137 104.75 30.125 C104.71648437 30.88554687 104.68296875 31.64609375 104.6484375 32.4296875 C104.55520651 37.83708519 105.28015434 40.81795795 109 45 C112.21374166 47.77231821 115.58247416 50.2980215 119 52.8125 C119.94464111 53.52027588 120.88928223 54.22805176 121.86254883 54.95727539 C125.79408404 57.89943104 129.74610854 60.81350619 133.69921875 63.7265625 C142.92757068 70.5543366 151.5546587 77.38438919 158 87 C154.72102483 94.04101365 147.95845146 97.19081061 141 100 C127.36750778 103.83598266 113.6235838 102.6514109 101.0324707 96.15527344 C97.72241423 94.2738095 94.71554948 92.05033497 91.6875 89.75 C90.37000113 88.76534467 89.05229151 87.78097126 87.734375 86.796875 C87.09693359 86.31798828 86.45949219 85.83910156 85.80273438 85.34570312 C83.37125548 83.5306555 80.90451741 81.76632607 78.4375 80 C73.52852143 76.43915883 68.76079414 72.7143769 64.01098633 68.94555664 C60.76337115 66.37058081 57.48305608 63.86837599 54.125 61.4375 C53.09375 60.633125 52.0625 59.82875 51 59 C51 58.34 51 57.68 51 57 C50.43796875 56.75636719 49.8759375 56.51273437 49.296875 56.26171875 C46.55980215 54.75819064 44.54204059 52.93300252 42.25 50.8125 C38.3743113 47.24732642 34.43851248 43.78753119 30.3984375 40.41015625 C29 39 29 39 29 37 C27.515 36.505 27.515 36.505 26 36 C26 35.34 26 34.68 26 34 C25.34 34 24.68 34 24 34 C21.45222148 31.53485214 19.26270243 28.72593285 17 26 C16.36578125 25.25234375 15.7315625 24.5046875 15.078125 23.734375 C11.04533402 18.8627635 7.43479803 13.802393 4 8.5 C3.40276123 7.58226807 3.40276123 7.58226807 2.79345703 6.64599609 C0 2.25169702 0 2.25169702 0 0 Z " fill="#13A32E" transform="translate(130,268)"/>
<path d="M0 0 C0.33 0 0.66 0 1 0 C0.90258234 24.84150356 -13.20901098 45.12575963 -30.08203125 62.09375 C-36.41738555 68.01771766 -43.5825517 72.57638866 -51 77 C-52.11890625 77.6703125 -53.2378125 78.340625 -54.390625 79.03125 C-64.7971523 85.01286163 -75.98458864 88.91229828 -87.23730469 92.9921875 C-102.57223672 98.58626663 -117.13117288 104.77040769 -130 115 C-130.71800781 115.54140625 -131.43601563 116.0828125 -132.17578125 116.640625 C-139.8006564 122.74052512 -147.01355168 132.04836017 -148.24462891 141.97192383 C-148.4156974 144.10633601 -148.53216009 146.23581367 -148.625 148.375 C-148.66367188 149.11105469 -148.70234375 149.84710938 -148.7421875 150.60546875 C-148.83557998 152.40327406 -148.9188371 154.20160108 -149 156 C-152.07745908 154.78534783 -155.06176804 153.52352768 -158 152 C-158 151.34 -158 150.68 -158 150 C-158.70125 149.938125 -159.4025 149.87625 -160.125 149.8125 C-163.9119997 148.74226096 -166.63019352 147.12592625 -169 144 C-169.8753969 140.71158215 -169.80635693 137.57233879 -169.6875 134.1875 C-169.66824463 133.25623291 -169.64898926 132.32496582 -169.62915039 131.36547852 C-169.04174829 116.61979088 -163.89944477 102.16249769 -153.75 91.1875 C-136.79865805 75.73627681 -114.09995573 72.05003586 -92.23046875 68.82421875 C-77.52954051 66.64658563 -63.58614094 64.30642973 -50 58 C-48.95457031 57.51660156 -47.90914063 57.03320312 -46.83203125 56.53515625 C-27.06154438 46.46866011 -9.21462743 28.69792252 -2.1015625 7.296875 C-1.36358215 4.87304962 -0.66152858 2.44565111 0 0 Z " fill="#D30000" transform="translate(275,106)"/>
<path d="M0 0 C0.33 0 0.66 0 1 0 C0.15646837 10.45979221 -2.72841028 19.27045109 -7.6875 28.5 C-8.34842651 29.74100464 -8.34842651 29.74100464 -9.02270508 31.00708008 C-12.42263451 37.24529687 -16.24463323 42.71066196 -21 48 C-21.5259375 48.66644531 -22.051875 49.33289063 -22.59375 50.01953125 C-31.40391369 60.96745525 -44.48073047 68.49660497 -56.125 76.125 C-81.62659687 90.68421617 -81.62659687 90.68421617 -97.60546875 113.3984375 C-99.06317344 123.0106288 -97.93033397 130.1325335 -92.125 138.0625 C-91.09099622 139.38104536 -90.04968477 140.69390369 -89 142 C-88.195625 143.03125 -87.39125 144.0625 -86.5625 145.125 C-84.00505422 147.99432941 -81.33100122 150.38355764 -78.35546875 152.80078125 C-77.90816406 153.19652344 -77.46085937 153.59226562 -77 154 C-77 154.33 -77 154.66 -77 155 C-97.88346383 153.43785113 -116.69692338 147.85883674 -136 140 C-136.85754883 139.65839844 -137.71509766 139.31679688 -138.59863281 138.96484375 C-139.82211426 138.45630859 -139.82211426 138.45630859 -141.0703125 137.9375 C-141.80266113 137.63714844 -142.53500977 137.33679688 -143.28955078 137.02734375 C-145 136 -145 136 -146 133 C-146.92761636 120.45436884 -145.2881839 111.11010222 -137.0859375 101.28125 C-122.98042197 85.85499332 -104.51449885 77.14797896 -84.92407227 70.58374023 C-53.80044892 60.14808253 -21.99728462 42.91126408 -6.55957031 12.53393555 C-5.55011167 10.47710542 -4.56617363 8.41049302 -3.59375 6.3359375 C-2 3 -2 3 0 0 Z " fill="#F10000" transform="translate(274,129)"/>
<path d="M0 0 C2.90961476 1.45480738 3.05318608 3.36306748 4.1875 6.375 C10.8381396 22.82555266 20.76397636 33.95697051 37.078125 40.96484375 C53.30646832 46.71418998 75.1276375 46.07862954 90.96679688 39.13818359 C98.43073836 35.49524972 105.1041178 30.85926181 111 25 C111.495 25.99 111.495 25.99 112 27 C104.74363342 42.77074646 95.03100134 52.06259571 80.21191406 60.69873047 C77.95102938 62.02880943 75.72250643 63.40455132 73.4921875 64.78515625 C65.26146269 69.76088702 58.60578277 72.83476994 48.85546875 73.59765625 C29.8568058 75.58029281 15.31366261 83.72928468 2 97 C0 96 0 96 -0.9296875 93.71875 C-6.10937004 76.08214497 -8.37331865 58.27933648 -8.5 39.9375 C-8.51035278 39.2595639 -8.52070557 38.58162781 -8.53137207 37.88314819 C-8.690927 24.67236088 -6.74720975 11.56664529 0 0 Z " fill="#E20000" transform="translate(99,90)"/>
<path d="M0 0 C0.9237442 0.00424484 1.8474884 0.00848969 2.79922485 0.01286316 C5.7336408 0.02958202 8.66735606 0.06722159 11.6015625 0.10546875 C13.59764629 0.12052437 15.59374091 0.13421124 17.58984375 0.14648438 C22.46901772 0.1794633 27.34767153 0.23119861 32.2265625 0.29296875 C29.19611119 2.61898186 26.16169858 4.43203458 22.7890625 6.23046875 C4.45102309 16.92020392 -6.50339496 33.23777732 -11.9609375 53.60546875 C-22.35804323 96.03904167 -7.55500275 136.63025046 14.13647461 172.78491211 C20.12467207 182.46550954 26.62490758 191.80342784 33.23046875 201.0703125 C33.74657715 201.80024414 34.26268555 202.53017578 34.79443359 203.28222656 C35.68416236 204.53142637 36.58603843 205.77217856 37.50634766 206.99902344 C39.92290458 210.32698582 40.69842461 212.56351974 40.4765625 216.66796875 C40.44046875 217.54195312 40.404375 218.4159375 40.3671875 219.31640625 C40.32078125 219.96867188 40.274375 220.6209375 40.2265625 221.29296875 C24.66676075 212.37386811 11.67395627 197.9167984 -0.90527344 185.29150391 C-2.6648723 183.52648331 -4.42984147 181.76695742 -6.1953125 180.0078125 C-11.93477911 174.27136232 -17.53273998 168.49588551 -22.7734375 162.29296875 C-23.1034375 161.96296875 -23.4334375 161.63296875 -23.7734375 161.29296875 C-23.87432126 159.43362326 -23.90420792 157.57040626 -23.90715027 155.70832825 C-23.91141525 154.4955722 -23.91568024 153.28281616 -23.92007446 152.03330994 C-23.91972489 150.67691037 -23.91926333 149.32051083 -23.91870117 147.96411133 C-23.92169119 146.54514477 -23.92509335 145.12617902 -23.92887878 143.70721436 C-23.93774217 139.8412872 -23.94005796 135.97538215 -23.94069457 132.10944581 C-23.94164235 128.88400274 -23.94531941 125.65856485 -23.94886667 122.43312377 C-23.95702123 114.8208917 -23.95945011 107.20867147 -23.95874023 99.59643555 C-23.95814018 91.74452665 -23.96867527 83.89268662 -23.9844839 76.04079515 C-23.99756655 69.30272944 -24.00292378 62.5646862 -24.00228482 55.82660788 C-24.00202991 51.80111156 -24.00487688 47.77567632 -24.01546288 43.75019264 C-24.02515525 39.96060034 -24.02521523 36.17112731 -24.01794624 32.38153076 C-24.01690159 30.99241143 -24.01925619 29.60328463 -24.0253067 28.21417809 C-24.03304669 26.31364301 -24.0271734 24.41306719 -24.02067566 22.51252747 C-24.02122043 21.45007718 -24.02176519 20.3876269 -24.02232647 19.29298115 C-23.6144114 14.37612898 -22.2634657 10.34195288 -19.0234375 6.60546875 C-18.55421875 6.04472656 -18.085 5.48398437 -17.6015625 4.90625 C-12.12715114 0.07519895 -6.93041575 -0.12088072 0 0 Z " fill="#BC0000" transform="translate(46.7734375,14.70703125)"/>
<path d="M0 0 C0.93742035 -0.00511093 1.8748407 -0.01022186 2.84066772 -0.01548767 C5.94112542 -0.02938745 9.04136052 -0.02842468 12.1418457 -0.02612305 C14.31118349 -0.03001359 16.48052052 -0.034349 18.64985657 -0.03910828 C23.2052354 -0.04657413 27.76053677 -0.04627933 32.31591797 -0.04101562 C38.10634832 -0.03526154 43.89645455 -0.05205125 49.68683147 -0.0753603 C54.17490951 -0.09022805 58.6629122 -0.09095108 63.15101051 -0.08785057 C65.28248542 -0.08835862 67.41396515 -0.09349756 69.54541588 -0.10366249 C93.02544221 -0.20178261 113.43410396 2.54607228 133.63012695 15.2746582 C134.8850293 16.05776367 134.8850293 16.05776367 136.1652832 16.85668945 C148.79789117 25.65718354 155.47825822 39.6832586 158.21606445 54.4309082 C159.76146243 67.48093554 157.02810668 79.53443738 149.25512695 90.0871582 C146.35667105 93.65257063 143.67923296 96.10885732 139.63012695 98.2746582 C138.97012695 98.2746582 138.31012695 98.2746582 137.63012695 98.2746582 C137.63012695 98.9346582 137.63012695 99.5946582 137.63012695 100.2746582 C135.92435353 100.92722277 134.21536606 101.57138862 132.50512695 102.2121582 C131.07813477 102.75163086 131.07813477 102.75163086 129.62231445 103.30200195 C123.69583969 105.2284931 117.98982053 105.46731136 111.81762695 105.4621582 C111.02243652 105.46280273 110.22724609 105.46344727 109.40795898 105.46411133 C103.88909514 105.41436128 98.94586385 104.84969136 93.63012695 103.2746582 C95.13385999 100.26719213 97.31228138 100.17516681 100.44262695 99.0871582 C106.44597812 96.86982343 111.73020604 94.08157995 117.16918945 90.7277832 C119.63012695 89.2746582 119.63012695 89.2746582 122.63012695 88.2746582 C123.67670469 86.42702898 123.67670469 86.42702898 124.63012695 84.2746582 C126.13256209 82.19834863 127.70786585 80.19274631 129.2902832 78.17700195 C133.07007127 72.81036409 132.03991875 65.52751581 131.63012695 59.2746582 C130.92373298 56.57293059 130.00039248 54.75167666 128.63012695 52.2746582 C127.95735979 50.6104447 127.2880586 48.94479238 126.63012695 47.2746582 C125.97012695 47.2746582 125.31012695 47.2746582 124.63012695 47.2746582 C123.89407227 46.52442383 123.15801758 45.77418945 122.3996582 45.0012207 C112.84664044 35.59641619 98.6668823 32.47963392 85.66918945 32.18481445 C68.99625691 32.8442915 56.94080518 40.00586415 45.50512695 51.98950195 C26.31421998 75.37841983 24.14250034 108.77284856 26.96411133 137.69848633 C28.91971661 153.56273792 33.02342089 168.83297316 38.25512695 183.8996582 C42.80405206 197.37531408 44.07634292 210.5372913 44.25512695 224.6496582 C44.2994054 226.95804303 44.34851096 229.2662919 44.39802551 231.5745697 C44.43006392 233.07670623 44.46068014 234.57887385 44.48979187 236.08106995 C44.65093758 244.15869101 45.08349019 252.2146736 45.63012695 260.2746582 C46.19989258 260.11739258 46.7696582 259.96012695 47.35668945 259.7980957 C51.74871754 258.78687274 56.41725031 258.14793893 60.5480957 260.2512207 C62.19262695 261.5246582 62.19262695 261.5246582 64.63012695 264.2746582 C64.63012695 265.5946582 64.63012695 266.9146582 64.63012695 268.2746582 C63.8102832 268.62657227 62.99043945 268.97848633 62.14575195 269.34106445 C61.0680957 269.83477539 59.99043945 270.32848633 58.88012695 270.8371582 C57.8127832 271.31282227 56.74543945 271.78848633 55.64575195 272.27856445 C51.90677843 274.75345496 49.81686004 276.97585318 48.63012695 281.2746582 C48.41643504 285.90011672 48.86973177 290.42202949 49.31762695 295.0246582 C49.55017305 297.79974746 49.76419214 300.5761783 49.9777832 303.3527832 C50.03500549 304.07328857 50.09222778 304.79379395 50.15118408 305.53613281 C50.79874415 313.93983841 51.03846842 322.35064586 51.25512695 330.7746582 C51.28514297 331.85281799 51.28514297 331.85281799 51.31576538 332.95275879 C51.41150185 336.39453653 51.49598773 339.83598457 51.55688477 343.27856445 C51.60670323 345.99665983 51.67357539 348.71018705 51.75805664 351.42700195 C51.78655858 352.76161985 51.81425945 354.09625515 51.84106445 355.4309082 C51.87248535 356.60459961 51.90390625 357.77829102 51.9362793 358.98754883 C51.58597627 362.74869717 50.61504032 365.07703166 48.63012695 368.2746582 C45.94195518 370.06677272 44.66356015 370.65418055 41.64575195 371.30981445 C40.87489258 371.47932617 40.1040332 371.64883789 39.30981445 371.82348633 C38.50801758 371.99299805 37.7062207 372.16250977 36.88012695 372.3371582 C36.09379883 372.51053711 35.3074707 372.68391602 34.49731445 372.86254883 C26.67865545 374.55745747 19.1413215 375.43771515 11.14575195 375.4777832 C10.24951111 375.48348328 9.35327026 375.48918335 8.42987061 375.49505615 C6.54057988 375.50446174 4.65127307 375.51102236 2.76196289 375.51489258 C-0.09738436 375.524582 -2.956007 375.55564125 -5.81518555 375.5871582 C-30.4542805 375.73139361 -30.4542805 375.73139361 -38.1862793 368.18481445 C-41.12872524 363.43611456 -39.88938356 357.79172321 -38.81518555 352.5871582 C-38.31616997 350.5238129 -37.80718218 348.46286969 -37.29174805 346.40356445 C-31.65438862 322.4447869 -29.2849659 296.8396131 -28.36987305 272.2746582 C-28.32620605 271.18185547 -28.28253906 270.08905273 -28.23754883 268.96313477 C-27.89256935 260.13305404 -27.63003473 251.30337888 -27.42315674 242.46911621 C-27.36896244 240.23715556 -27.30800652 238.0054472 -27.24633789 235.77368164 C-27.14760322 232.08467242 -27.07812119 228.39607453 -27.02883911 224.70608521 C-27.00636068 223.30379856 -26.97529944 221.90162082 -26.93527222 220.49972534 C-26.88155427 218.5463108 -26.86325208 216.5920201 -26.84643555 214.63793945 C-26.82661621 213.52717041 -26.80679687 212.41640137 -26.78637695 211.27197266 C-27.55983127 207.29887698 -29.32121067 205.83824095 -32.36987305 203.2746582 C-34.3653774 201.96283737 -34.3653774 201.96283737 -36.36987305 201.0871582 C-37.05049805 200.76875977 -37.73112305 200.45036133 -38.43237305 200.12231445 C-40.72569208 199.11898737 -43.02585756 198.15366401 -45.36987305 197.2746582 C-44.87221259 193.59197081 -44.30701346 191.62437053 -41.36987305 189.2746582 C-37.03452869 187.10698603 -31.14824855 188.22781138 -26.36987305 188.2746582 C-25.32390256 171.12610426 -25.2841228 154.01611348 -25.38640404 136.84525299 C-25.41476015 132.00165253 -25.43140323 127.15805148 -25.44587708 122.31439209 C-25.48815986 108.56050306 -25.53625773 94.80670363 -25.61669922 81.05297852 C-25.66127962 73.41455444 -25.69147011 65.77621604 -25.70555669 58.13767314 C-25.71358814 54.11446997 -25.72892475 50.09159941 -25.76222801 46.06851959 C-25.79342609 42.29581972 -25.80574659 38.52351827 -25.80401039 34.75069427 C-25.80795772 32.72264072 -25.83181485 30.69465587 -25.85644531 28.66674805 C-25.82966429 20.55845176 -25.2981465 12.61995651 -19.61963177 6.3386116 C-13.5774814 0.73802321 -7.97246209 -0.02245803 0 0 Z M-21.36987305 13.2746582 C-22.36233184 16.9797583 -22.50763348 20.5094456 -22.53723145 24.33358765 C-22.54872223 25.55039719 -22.56021301 26.76720673 -22.572052 28.02088928 C-22.57967578 29.36117471 -22.5871475 30.70146101 -22.59448242 32.04174805 C-22.60566587 33.45968377 -22.61717945 34.87761692 -22.6289978 36.29554749 C-22.66544834 40.94219324 -22.69075412 45.58886546 -22.71362305 50.2355957 C-22.71756891 51.02712555 -22.72151478 51.81865541 -22.72558022 52.63417101 C-22.76198067 60.10262006 -22.79341004 67.57107878 -22.81468964 75.03958702 C-22.84228099 84.58053406 -22.89310701 94.12073922 -22.97516394 103.66137731 C-23.03096751 110.37744807 -23.05992676 117.0933175 -23.06916285 123.80961192 C-23.07541587 127.81810492 -23.0934972 131.82572612 -23.14054871 135.8339653 C-23.18427298 139.60507635 -23.19468729 143.37484052 -23.1799202 147.14616203 C-23.18024834 148.52685776 -23.19248644 149.90761214 -23.21776962 151.2880764 C-23.51022212 158.78386793 -23.51022212 158.78386793 -20.86421204 165.56927872 C-19.12147018 167.31811094 -17.32433787 168.77281289 -15.36987305 170.2746582 C-14.32754951 171.42949498 -13.30852298 172.60614218 -12.32299805 173.80981445 C-7.19622941 179.74389197 -1.59841013 185.23212597 3.9440918 190.77392578 C5.86708877 192.69910523 7.78193269 194.63214851 9.6965332 196.56567383 C16.69700745 203.59797612 23.78251473 210.18397409 31.63012695 216.2746582 C33.33887185 217.62830551 35.04726323 218.98239931 36.75512695 220.3371582 C38.95315722 222.36872435 38.95315722 222.36872435 41.63012695 223.2746582 C42.60485268 219.17884102 42.68176712 215.35592073 40.74389648 211.52075195 C38.14627461 207.33254518 35.17096742 203.40348084 32.22973633 199.45288086 C3.80505567 160.7463789 -19.80378944 114.89526641 -12.64331055 65.5559082 C-8.66338474 42.55628341 1.51338304 24.08551323 20.6105957 10.2590332 C24.77378692 7.52306795 29.07457115 5.2803122 33.63012695 3.2746582 C33.63012695 2.9446582 33.63012695 2.6146582 33.63012695 2.2746582 C27.79524382 2.15048737 21.96114012 2.06004997 16.12524414 2 C14.14268587 1.97495137 12.16021906 1.94090237 10.17797852 1.89746094 C7.31804769 1.83638201 4.45934404 1.80835191 1.59887695 1.78637695 C0.72146851 1.76057053 -0.15593994 1.7347641 -1.05993652 1.70817566 C-10.14992213 1.7040902 -16.2939499 5.89149727 -21.36987305 13.2746582 Z M12.63012695 18.2746582 C11.7174707 19.0500293 11.7174707 19.0500293 10.78637695 19.84106445 C-3.59784632 32.88493965 -11.26866099 54.24546661 -12.65551758 73.1730957 C-12.75079036 76.53197676 -12.7923878 79.87449069 -12.76098633 83.23364258 C-12.74487796 85.27403544 -12.76095618 87.31244893 -12.7800293 89.3527832 C-12.79487654 98.3287531 -11.60568892 106.58838505 -9.36987305 115.2746582 C-9.05735596 116.55228027 -9.05735596 116.55228027 -8.73852539 117.85571289 C-1.14212104 147.82456995 15.16654035 174.35971858 33.1184082 199.17651367 C34.12577436 200.5746572 35.12322905 201.97999586 36.1105957 203.39233398 C37.26061609 205.03622057 38.44195033 206.6581353 39.63012695 208.2746582 C39.96012695 208.2746582 40.29012695 208.2746582 40.63012695 208.2746582 C40.7728659 203.54048327 40.40651744 199.58005182 39.13012695 195.0246582 C38.9606958 194.41114502 38.79126465 193.79763184 38.61669922 193.16552734 C37.03500753 187.51605423 35.32415248 181.90413832 33.63818359 176.28515625 C28.00524798 157.48515334 24.44267764 140.37278022 24.44482422 120.70800781 C24.44264125 118.47677412 24.42443184 116.24603912 24.40551758 114.01489258 C24.30689124 89.47393904 29.67143887 64.65117113 47.18481445 46.57543945 C50.48249629 43.47266852 53.85262004 40.7649011 57.63012695 38.2746582 C58.27594727 37.82477539 58.92176758 37.37489258 59.5871582 36.91137695 C68.07472788 31.2362564 76.01693058 29.78005404 86.13012695 29.8996582 C87.11110352 29.88805664 88.09208008 29.87645508 89.1027832 29.86450195 C102.00313093 29.91603463 117.16874286 35.78652766 126.81762695 44.5871582 C133.17455974 52.0147323 135.57242617 60.14606651 135.16918945 69.8449707 C133.83293919 78.34662093 129.07799891 84.85914219 122.55200195 90.2824707 C116.27079917 94.56510896 109.43035782 97.90186861 102.63012695 101.2746582 C105.30280237 103.94733362 106.64661753 103.57349902 110.38012695 103.5871582 C123.71446334 103.32223761 134.69895455 100.52859577 144.6887207 91.3918457 C153.17405083 82.37732295 155.90576436 72.86921008 155.7824707 60.7590332 C155.4064584 52.15895691 154.10672324 44.67885553 149.63012695 37.2746582 C149.24727539 36.59661133 148.86442383 35.91856445 148.4699707 35.2199707 C145.72395156 30.54025962 142.69019591 26.88360838 138.63012695 23.2746582 C137.97012695 23.2746582 137.31012695 23.2746582 136.63012695 23.2746582 C136.63012695 22.6146582 136.63012695 21.9546582 136.63012695 21.2746582 C129.37025524 14.01478649 119.33937514 10.12728687 109.63012695 7.2746582 C108.82961914 7.01942383 108.02911133 6.76418945 107.2043457 6.5012207 C97.49291737 3.45035208 88.24338267 1.9465047 78.05981445 1.7980957 C76.97991241 1.78195221 75.90001038 1.76580872 74.78738403 1.74917603 C72.51334888 1.72167374 70.23923429 1.70015025 67.96508789 1.68432617 C65.66893837 1.66131931 63.37289447 1.62046531 61.07739258 1.5612793 C40.88812527 1.04234207 27.8080805 4.4276073 12.63012695 18.2746582 Z M-22.36987305 165.2746582 C-23.38881381 171.12353863 -23.48785757 176.78384989 -23.43237305 182.7121582 C-23.42786133 183.63448242 -23.42334961 184.55680664 -23.41870117 185.50708008 C-23.40701242 187.76300868 -23.3906276 190.01879787 -23.36987305 192.2746582 C-24.09045898 191.95110352 -24.81104492 191.62754883 -25.5534668 191.29418945 C-28.37920532 190.27127994 -30.4459047 189.97600582 -33.43237305 189.9621582 C-34.26897461 189.94540039 -35.10557617 189.92864258 -35.9675293 189.91137695 C-38.83435184 190.34489646 -40.21319469 191.38694204 -42.36987305 193.2746582 C-41.67540227 196.48601444 -41.67540227 196.48601444 -38.7878418 197.7043457 C-36.64264657 198.66410657 -34.49681732 199.62245162 -32.3503418 200.5793457 C-28.85734375 202.56618863 -27.45277272 203.82008617 -25.36987305 207.2746582 C-24.79616075 210.80665592 -24.85767535 214.29333842 -24.90893555 217.86450195 C-24.90899094 218.90821457 -24.90904633 219.95192719 -24.90910339 221.02726746 C-24.91622267 224.42272089 -24.95404914 227.81695496 -24.99487305 231.2121582 C-25.01058772 233.55509112 -25.02580401 235.89802744 -25.04052734 238.2409668 C-25.17083655 253.76701524 -25.64554092 269.19558355 -27.04467773 284.66381836 C-27.34322937 287.97881742 -27.6185178 291.29466812 -27.88638306 294.61222839 C-29.07555578 309.27980827 -30.317701 323.85554049 -33.36987305 338.2746582 C-33.9189895 340.93489089 -34.46405586 343.59588168 -35.00488281 346.2578125 C-35.36248528 348.00821572 -35.72710249 349.75720663 -36.10009766 351.50439453 C-37.91587325 359.39279646 -37.91587325 359.39279646 -35.93237305 366.9621582 C-29.45598104 372.80670709 -19.81612701 373.42426097 -11.44799805 373.5480957 C-10.67848312 373.56053314 -9.9089682 373.57297058 -9.11613464 373.58578491 C5.15051952 373.77142766 19.1540543 373.89355883 33.19262695 371.0246582 C34.19455078 370.82018066 35.19647461 370.61570312 36.22875977 370.4050293 C41.21292256 369.24695986 45.00280265 368.10226421 48.63012695 364.2746582 C49.5568821 361.49439276 49.73778126 359.9630205 49.68359375 357.1081543 C49.6630191 355.84685448 49.6630191 355.84685448 49.64202881 354.56007385 C49.62134338 353.64862106 49.60065796 352.73716827 49.5793457 351.7980957 C49.56115784 350.84809189 49.54296997 349.89808807 49.52423096 348.91929626 C49.46203194 345.82923439 49.39055349 342.73948433 49.31762695 339.6496582 C49.2946756 338.60466156 49.27172424 337.55966492 49.24807739 336.48300171 C48.93925962 322.66842907 48.40178142 308.9556117 47.0324707 295.20043945 C45.75327021 281.44592253 45.75327021 281.44592253 47.94262695 276.0246582 C51.95463459 271.91934806 56.69136599 269.15276373 61.63012695 266.2746582 C60.9525075 263.23746208 60.9525075 263.23746208 58.88012695 262.0715332 C56.21177017 261.12649018 54.43289709 261.19994703 51.63012695 261.5246582 C50.78450195 261.61231445 49.93887695 261.6999707 49.06762695 261.7902832 C46.60692016 262.27926981 44.83706949 263.11636331 42.63012695 264.2746582 C42.64060059 263.27611816 42.65107422 262.27757812 42.66186523 261.2487793 C42.69821153 257.52518331 42.72108041 253.80160285 42.73999023 250.07788086 C42.75001458 248.46978107 42.76363762 246.86169935 42.78100586 245.25366211 C42.80541183 242.93509444 42.81664581 240.61676891 42.82543945 238.2980957 C42.83576202 237.58535492 42.84608459 236.87261414 42.85671997 236.13827515 C42.85768331 231.80022622 42.36937612 228.26045282 40.63012695 224.2746582 C38.58979055 222.40653903 36.67974349 220.86016968 34.44262695 219.2746582 C28.90368384 215.14908058 23.76443879 210.77974161 18.75512695 206.0246582 C18.12276123 205.42468018 17.49039551 204.82470215 16.83886719 204.20654297 C15.63677265 203.0650689 14.43501241 201.92324264 13.23364258 200.78100586 C11.20175934 198.87224831 9.11576602 197.0331795 7.00512695 195.2121582 C2.42942144 191.25373202 -1.65350913 186.97228573 -5.68237305 182.4621582 C-9.76059084 177.9013513 -14.00309744 173.55727753 -18.36987305 169.2746582 C-19.70437443 167.94249395 -21.03801057 166.60946077 -22.36987305 165.2746582 Z " fill="#0E0000" transform="translate(45.369873046875,12.725341796875)"/>
<path d="M0 0 C0.99 0 1.98 0 3 0 C8.19985981 27.61969626 3.11982078 57.95966985 -12.64746094 81.32543945 C-13.74673994 82.8965433 -14.8728951 84.44873724 -16 86 C-16.64710938 86.91136719 -17.29421875 87.82273437 -17.9609375 88.76171875 C-25.0813543 98.250764 -34.89472911 105.84982535 -45 112 C-45.66 112 -46.32 112 -47 112 C-47 112.66 -47 113.32 -47 114 C-49.1328125 115.62890625 -49.1328125 115.62890625 -52.125 117.5625 C-53.21941406 118.27535156 -54.31382812 118.98820312 -55.44140625 119.72265625 C-57.79984195 121.23604559 -60.16330905 122.74146984 -62.52734375 124.24609375 C-69.87367232 128.92573652 -77.06747805 133.71324749 -84 139 C-84.67933594 139.51175781 -85.35867187 140.02351562 -86.05859375 140.55078125 C-92.32725114 145.55222618 -97.0143802 152.47878464 -98.44140625 160.47265625 C-98.88815169 170.02724415 -94.82677028 176.576513 -88.6953125 183.6640625 C-78.58328746 194.09915543 -66.74017378 202.52362622 -55 211 C-54.60167969 210.44570313 -54.20335937 209.89140625 -53.79296875 209.3203125 C-53.26316406 208.59585938 -52.73335938 207.87140625 -52.1875 207.125 C-51.66542969 206.40570313 -51.14335937 205.68640625 -50.60546875 204.9453125 C-49 203 -49 203 -46 201 C-43.95703125 200.8046875 -43.95703125 200.8046875 -41.8125 200.875 C-40.554375 200.91625 -39.29625 200.9575 -38 201 C-38.14308594 202.75376953 -38.14308594 202.75376953 -38.2890625 204.54296875 C-38.40165397 206.09110142 -38.51359914 207.6392812 -38.625 209.1875 C-38.68945312 209.95642578 -38.75390625 210.72535156 -38.8203125 211.51757812 C-39.11525999 215.81275092 -39.32809378 219.20681272 -37 223 C-34.58508333 225.23570228 -34.58508333 225.23570228 -31.625 227.25 C-30.5323566 228.03748925 -29.43991414 228.82525738 -28.34765625 229.61328125 C-27.78965332 230.0098291 -27.23165039 230.40637695 -26.65673828 230.81494141 C-23.0775935 233.37509006 -19.58053334 236.04711764 -16.06640625 238.6953125 C-13.9788143 240.26433065 -11.88204171 241.82119118 -9.77734375 243.3671875 C-3.9565506 247.68396477 1.47966213 252.20109611 6.625 257.3125 C7.12193359 257.80403564 7.61886719 258.29557129 8.13085938 258.80200195 C12.11834535 262.86898877 15.42699295 266.54304388 15.4375 272.4375 C15.25614607 276.99401759 14.07322096 279.53277635 11 283 C5.06084656 288 5.06084656 288 2 288 C2 288.66 2 289.32 2 290 C-2.2993131 292.08031279 -6.6335606 294.06460524 -11 296 C-11.93457031 296.42539062 -12.86914062 296.85078125 -13.83203125 297.2890625 C-24.03990086 301.34884469 -38.13477401 302.34587806 -48.5625 298.375 C-50.06255281 297.62366006 -51.54239873 296.83070373 -53 296 C-53.86238281 295.56429688 -54.72476563 295.12859375 -55.61328125 294.6796875 C-61.61368048 291.57339879 -67.20741133 287.96416363 -72.78515625 284.16015625 C-75.12916066 282.58514478 -77.47879816 281.0563634 -79.87109375 279.55859375 C-80.83921997 278.95011597 -80.83921997 278.95011597 -81.8269043 278.3293457 C-83.09183836 277.53717613 -84.36016077 276.75038709 -85.63208008 275.96948242 C-87.12227923 275.03197339 -88.56650378 274.02210825 -90 273 C-90 272.34 -90 271.68 -90 271 C-91.10021484 270.60941406 -91.10021484 270.60941406 -92.22265625 270.2109375 C-97.13351748 268.06977437 -100.92234746 264.42241222 -105 261 C-105.54930176 260.54238281 -106.09860352 260.08476562 -106.66455078 259.61328125 C-133.70429458 237.04360419 -152.62798979 210.08967155 -167.02490234 178.13916016 C-167.8771318 176.26954711 -168.77292572 174.41991642 -169.67578125 172.57421875 C-176.42473599 157.61245148 -173.55586792 141.83705768 -168 127 C-166.87763681 124.14470805 -165.62282127 121.59988321 -164 119 C-163.55527344 118.22785156 -163.11054688 117.45570313 -162.65234375 116.66015625 C-155.43077395 105.14468008 -144.5941506 98.39122793 -132 94 C-130.67319214 93.52397339 -130.67319214 93.52397339 -129.31958008 93.03833008 C-118.10395414 89.29149794 -106.52681142 87.85976814 -94.86450195 86.14819336 C-65.7822132 81.84186019 -36.24957503 72.3046227 -17.90258789 47.73583984 C-7.02677304 32.82205927 -1.92762587 18.33780924 0 0 Z M-1 19 C-1.25652344 19.92039062 -1.51304687 20.84078125 -1.77734375 21.7890625 C-8.29091766 43.82078615 -23.87150207 61.52937051 -43.58203125 73.15234375 C-58.57325934 81.25617334 -74.07121073 85.10857004 -90.78457642 87.57904053 C-128.02946562 92.75949733 -128.02946562 92.75949733 -158 114 C-166.48869279 125.97896749 -170.25649069 138.4150373 -170.75 153 C-170.80220703 153.89662354 -170.85441406 154.79324707 -170.90820312 155.71704102 C-170.92846156 159.56288692 -170.88177274 162.00165392 -168.27148438 164.95703125 C-164.1025659 168.22661144 -164.1025659 168.22661144 -159 169 C-159 169.66 -159 170.32 -159 171 C-157.88625 171.66 -156.7725 172.32 -155.625 173 C-154.68527344 173.556875 -154.68527344 173.556875 -153.7265625 174.125 C-152.02527333 175.15068348 -152.02527333 175.15068348 -150 175 C-149.97421875 173.94941406 -149.9484375 172.89882813 -149.921875 171.81640625 C-149.63958438 163.84288447 -149.35208449 156.92032039 -145 150 C-144.18015625 148.67935547 -144.18015625 148.67935547 -143.34375 147.33203125 C-138.54214355 140.19849708 -132.92862048 135.03550226 -126 130 C-125.20464844 129.40703125 -124.40929687 128.8140625 -123.58984375 128.203125 C-111.36603372 119.75687908 -96.6551913 114.87226734 -82.75 109.9375 C-51.43196631 98.78411123 -22.70261559 80.80830966 -7.68334961 50.00292969 C-2.95528727 39.89291121 -0.40278612 30.17731482 0 19 C-0.33 19 -0.66 19 -1 19 Z M-2 42 C-2.26103516 42.52319824 -2.52207031 43.04639648 -2.79101562 43.58544922 C-7.74970609 53.45289587 -12.54039176 62.7590494 -20 71 C-20.67289062 71.81339844 -21.34578125 72.62679687 -22.0390625 73.46484375 C-38.91606125 93.37970228 -63.70728611 104.57591672 -87.875 112.875 C-109.58242244 120.3797585 -133.91714646 130.74245416 -144.9375 152.375 C-147.37005741 157.56995311 -148.15765443 161.78547455 -148.125 167.5 C-148.12886719 168.17675781 -148.13273437 168.85351562 -148.13671875 169.55078125 C-148.13062416 172.64073767 -147.9844023 175.04679311 -147 178 C-145.00978853 179.23827252 -145.00978853 179.23827252 -142.49609375 180.234375 C-141.53952881 180.64042969 -140.58296387 181.04648437 -139.59741211 181.46484375 C-138.55464111 181.88894531 -137.51187012 182.31304687 -136.4375 182.75 C-135.3657251 183.18957031 -134.2939502 183.62914062 -133.18969727 184.08203125 C-116.06554044 190.93919088 -97.67540488 197.31183422 -79 197 C-80.0828125 195.63875 -80.0828125 195.63875 -81.1875 194.25 C-81.59355469 193.73953125 -81.99960938 193.2290625 -82.41796875 192.703125 C-84.04040037 190.86375612 -84.04040037 190.86375612 -86.41796875 189.12890625 C-92.9489097 183.74409109 -99.35255443 175.04899144 -100.2734375 166.4453125 C-100.60485728 157.24204007 -98.89726473 150.84837727 -92.9375 143.75 C-81.07444046 131.46204577 -65.68811538 122.67102048 -51.47875977 113.35522461 C-45.09601236 109.15080934 -38.94752425 104.80029003 -33 100 C-32.36634521 99.50169678 -31.73269043 99.00339355 -31.07983398 98.48999023 C-15.81122201 86.38087103 -4.98423359 65.7727712 -1 47 C-0.86271696 44.22608678 -0.86271696 44.22608678 -1 42 C-1.33 42 -1.66 42 -2 42 Z M-168 167 C-162.34028162 191.66141553 -145.12095033 216.91868688 -128 235 C-126.78535694 236.39034614 -125.57670441 237.78595562 -124.375 239.1875 C-118.3247501 246.09417797 -111.78867332 251.97603503 -104.61132812 257.70507812 C-102.89139573 259.08727834 -101.18747381 260.487746 -99.484375 261.890625 C-91.64182637 268.31433244 -83.61218131 274.20308632 -75.07324219 279.66552734 C-72.79911888 281.12930007 -70.5445832 282.62101998 -68.2890625 284.11328125 C-54.53988012 293.12850889 -41.96339223 300.41394212 -25 298 C-12.48802761 295.15123597 1.67474589 289.12944825 11 280 C13.27982223 276.13421448 13.72654513 273.50457979 13 269 C4.67923921 255.20932404 -9.95099201 245.92425722 -22.70996094 236.66455078 C-25.9915791 234.27925519 -29.2579613 231.87630976 -32.5 229.4375 C-33.5003125 228.69371094 -34.500625 227.94992187 -35.53125 227.18359375 C-38.63579783 224.43764084 -40.7427935 222.26291721 -41.22607422 218.01098633 C-41.29493062 215.72791904 -41.26212482 213.47025396 -41.1875 211.1875 C-41.16719727 210.00510742 -41.16719727 210.00510742 -41.14648438 208.79882812 C-41.11133456 206.86558831 -41.05753361 204.93270318 -41 203 C-45.20340518 203.33838275 -45.20340518 203.33838275 -48.64453125 205.5234375 C-49.02996094 206.13445312 -49.41539062 206.74546875 -49.8125 207.375 C-50.21082031 207.98085938 -50.60914063 208.58671875 -51.01953125 209.2109375 C-52.14577246 211.13961903 -52.14577246 211.13961903 -53 214 C-55.89426295 212.63039704 -58.46402084 211.06663808 -61.07421875 209.21484375 C-61.82380859 208.68439453 -62.57339844 208.15394531 -63.34570312 207.60742188 C-64.11849609 207.05634766 -64.89128906 206.50527344 -65.6875 205.9375 C-66.47189453 205.38255859 -67.25628906 204.82761719 -68.06445312 204.25585938 C-73.84837705 200.15162295 -73.84837705 200.15162295 -75 199 C-77.05116862 198.62942107 -79.11221809 198.31334843 -81.17578125 198.01953125 C-82.46919434 197.8282666 -83.76260742 197.63700195 -85.09521484 197.43994141 C-85.78363464 197.33820618 -86.47205444 197.23647095 -87.18133545 197.13165283 C-100.48785575 195.13893311 -113.32028364 192.60926353 -126 188 C-126.72251953 187.73993164 -127.44503906 187.47986328 -128.18945312 187.21191406 C-141.54362719 182.30176095 -154.8881949 175.95117633 -166 167 C-166.66 167 -167.32 167 -168 167 Z " fill="#070702" transform="translate(276,87)"/>
<path d="M0 0 C4.90256521 3.87644691 8.46691471 7.90001501 9.6875 14.125 C9.77443426 20.15606417 8.70896747 24.45140267 4.6875 29.125 C-0.57640626 33.336125 -5.8501596 35.48902897 -12.625 35 C-17.85022316 34.27027056 -22.52619478 32.27334159 -27.3125 30.125 C-19.94322687 38.38751835 -11.86248757 38.8812428 -1.3125 40.125 C-5.48658358 44.65844177 -9.52406212 45.80257975 -15.515625 46.3125 C-25.16534364 46.5824222 -32.8737825 44.45367632 -40.3125 38.125 C-45.7920651 32.08443181 -46.61533117 26.83452568 -46.53125 18.94140625 C-45.95475907 11.51908557 -42.40625405 4.90144594 -36.875 -0.0625 C-24.62977668 -8.72375552 -12.6979866 -7.18753958 0 0 Z " fill="#FA0000" transform="translate(156.3125,59.875)"/>
<path d="M0 0 C2.63331916 -0.004351 5.26492762 -0.04069619 7.89794922 -0.07861328 C18.9151842 -0.15154382 28.48932475 1.11125682 39.03466797 4.37060547 C40.28723389 4.74862305 41.5397998 5.12664063 42.83032227 5.51611328 C61.38429642 11.32298882 80.8503198 25.7659543 89.96044922 43.13574219 C99.04606238 61.83229306 99.65625605 81.74387217 93.03466797 101.37060547 C90.17527212 109.60369352 86.42823091 117.46901864 81.03466797 124.37060547 C80.37466797 124.37060547 79.71466797 124.37060547 79.03466797 124.37060547 C78.76396484 124.96486328 78.49326172 125.55912109 78.21435547 126.17138672 C68.92046882 143.49740719 42.25964716 153.98188481 24.41357422 159.48779297 C15.21066193 161.95850199 5.8913674 163.42239129 -3.51977539 164.86889648 C-16.48155541 166.87337653 -29.51480812 169.14574903 -41.96533203 173.37060547 C-41.96533203 174.03060547 -41.96533203 174.69060547 -41.96533203 175.37060547 C-43.01720703 175.92748047 -44.06908203 176.48435547 -45.15283203 177.05810547 C-48.64838942 179.03231703 -51.16550803 181.4907865 -53.96533203 184.37060547 C-54.62533203 184.37060547 -55.28533203 184.37060547 -55.96533203 184.37060547 C-56.21283203 184.94810547 -56.46033203 185.52560547 -56.71533203 186.12060547 C-58.14833192 188.70000526 -59.7495788 190.43182139 -61.96533203 192.37060547 C-62.62533203 192.37060547 -63.28533203 192.37060547 -63.96533203 192.37060547 C-69.11623018 173.843867 -73.20659944 155.64715536 -73.96533203 136.37060547 C-74.00658203 135.41541016 -74.04783203 134.46021484 -74.09033203 133.47607422 C-74.45398416 116.8617176 -72.60909256 100.30048179 -62.96533203 86.37060547 C-61.97533203 86.70060547 -60.98533203 87.03060547 -59.96533203 87.37060547 C-58.78955078 89.96044922 -58.78955078 89.96044922 -57.65283203 93.30810547 C-52.18117543 108.18062014 -43.22782259 119.98210026 -28.96533203 127.37060547 C-13.40381788 133.99096706 8.10482572 133.58164816 24.03466797 128.37060547 C40.33543111 121.55862178 49.36701776 111.17253032 56.01904297 95.30029297 C60.94285826 81.09697964 57.81513198 65.11680611 52.22216797 51.55810547 C49.3774797 45.69940226 45.97133133 39.27382164 41.31982422 34.67529297 C40.03466797 33.37060547 40.03466797 33.37060547 40.03466797 31.37060547 C39.46232422 31.11537109 38.88998047 30.86013672 38.30029297 30.59716797 C35.79162794 29.23902862 33.92799948 27.62664117 31.78466797 25.74560547 C15.70128882 12.73247491 -6.65194917 6.09207859 -26.96533203 4.37060547 C-26.96533203 3.71060547 -26.96533203 3.05060547 -26.96533203 2.37060547 C-17.99131296 0.04813676 -9.20983121 -0.00169766 0 0 Z M-13.96533203 2.37060547 C-13.63533203 3.03060547 -13.30533203 3.69060547 -12.96533203 4.37060547 C-11.18720851 4.84616671 -11.18720851 4.84616671 -8.96533203 5.12060547 C7.64819773 8.18662169 23.11166489 15.56179512 36.03466797 26.37060547 C37.02466797 27.09248047 38.01466797 27.81435547 39.03466797 28.55810547 C51.3185969 39.03356708 58.86357331 55.76901104 60.23095703 71.65039062 C60.99049112 83.67634711 59.67616722 93.18715058 55.03466797 104.37060547 C54.54500509 105.64773023 54.05938257 106.92641081 53.57763672 108.20654297 C52.14706939 111.9664161 50.6115806 115.6695226 49.03466797 119.37060547 C48.58478516 120.43408203 48.13490234 121.49755859 47.67138672 122.59326172 C38.77613057 142.0124829 20.95315882 150.5442482 3.03466797 160.37060547 C6.68091372 162.19372835 10.89880337 160.23193837 14.72216797 159.30810547 C16.14541382 158.96465088 16.14541382 158.96465088 17.59741211 158.61425781 C25.77355931 156.56590469 33.35395862 153.87514438 41.03466797 150.37060547 C42.22576172 149.83564453 43.41685547 149.30068359 44.64404297 148.74951172 C52.89558058 144.84894863 59.97379613 140.13396667 67.03466797 134.37060547 C67.83646484 133.74541016 68.63826172 133.12021484 69.46435547 132.47607422 C79.07411337 124.57878183 85.5695723 113.87749233 90.03466797 102.37060547 C90.32986328 101.61263672 90.62505859 100.85466797 90.92919922 100.07373047 C96.6893851 84.07006132 97.14216949 65.83176465 90.64013672 49.96826172 C89.2050746 47.02910917 87.68639826 44.19285329 86.03466797 41.37060547 C85.63634766 40.68611328 85.23802734 40.00162109 84.82763672 39.29638672 C83.7356104 37.47694488 83.7356104 37.47694488 82.03466797 35.37060547 C81.37466797 35.37060547 80.71466797 35.37060547 80.03466797 35.37060547 C79.79748047 34.79955078 79.56029297 34.22849609 79.31591797 33.64013672 C71.59975247 19.97217282 51.17528614 10.15481063 36.52294922 6.01123047 C32.71681022 5.02085323 28.88359621 4.17874343 25.03466797 3.37060547 C24.47271729 3.19335938 23.9107666 3.01611328 23.33178711 2.83349609 C19.8983017 2.14161722 16.47472005 2.2487901 12.98779297 2.27294922 C11.8309903 2.27507164 11.8309903 2.27507164 10.65081787 2.27723694 C8.19539459 2.28282013 5.74006355 2.29536952 3.28466797 2.30810547 C1.61670054 2.31312264 -0.05126833 2.31768517 -1.71923828 2.32177734 C-5.8013049 2.33278406 -9.88330284 2.3500371 -13.96533203 2.37060547 Z M-62.96533203 90.37060547 C-70.18914005 102.76243425 -71.55318583 115.79577357 -71.46533203 129.93310547 C-71.46489899 130.63605743 -71.46446594 131.3390094 -71.46401978 132.06326294 C-71.40252645 150.52034272 -68.68116758 168.78590323 -62.96533203 186.37060547 C-60.01629173 186.69936228 -60.01629173 186.69936228 -58.49267578 185.08544922 C-57.96802734 184.49892578 -57.44337891 183.91240234 -56.90283203 183.30810547 C-45.9591743 171.99889759 -30.29606895 165.23916777 -14.58251953 164.13232422 C-2.25519426 163.24039032 6.65469206 157.69496662 17.03466797 151.37060547 C18.14583984 150.72220703 19.25701172 150.07380859 20.40185547 149.40576172 C31.20573546 142.9020096 39.82453672 134.80278464 45.84716797 123.68310547 C46.78496094 121.97574219 46.78496094 121.97574219 47.74169922 120.23388672 C48.16837891 119.28900391 48.59505859 118.34412109 49.03466797 117.37060547 C48.53966797 116.38060547 48.53966797 116.38060547 48.03466797 115.37060547 C47.58478516 115.80630859 47.13490234 116.24201172 46.67138672 116.69091797 C41.27889159 121.68356877 35.58271247 125.08714799 29.03466797 128.37060547 C28.06142578 128.88751953 27.08818359 129.40443359 26.08544922 129.93701172 C10.74049464 137.14776502 -10.01282781 136.10284729 -25.96533203 131.37060547 C-45.14719901 123.31921445 -54.15427498 108.81082642 -61.96533203 90.37060547 C-62.29533203 90.37060547 -62.62533203 90.37060547 -62.96533203 90.37060547 Z " fill="#0D0000" transform="translate(161.96533203125,-0.37060546875)"/>
<path d="M0 0 C0.33 0 0.66 0 1 0 C0.99666908 1.10214466 0.99666908 1.10214466 0.99327087 2.22655487 C0.94193999 20.12162202 0.93482308 38.01620972 0.97665405 55.91130829 C0.99582215 64.56538603 1.00013619 73.2189911 0.96923828 81.87304688 C0.94233906 89.41775842 0.94355822 96.96185761 0.97825909 104.5065465 C0.9956523 108.50006296 0.99915695 112.49248291 0.96896362 116.48594666 C0.9409566 120.24909008 0.9506988 124.01029341 0.98873711 127.77333069 C0.99963137 129.80432343 0.97109277 131.83540931 0.94117737 133.86621094 C1.04124182 140.16879169 1.29605006 144.07247184 5.86621094 148.65612793 C7.23537668 149.78149992 8.61288504 150.89682774 10 152 C11.07440942 153.1852466 12.12594877 154.39213737 13.140625 155.62890625 C18.10134253 161.38317005 23.51713064 166.70313989 28.88671875 172.07202148 C30.73728967 173.92477468 32.57970076 175.78538706 34.421875 177.64648438 C41.30197274 184.55911677 48.28497386 191.01478284 56 197 C56.91168945 197.71470459 57.82337891 198.42940918 58.76269531 199.16577148 C60.83476489 200.78658387 62.91352866 202.39779609 65 204 C65.2993987 196.77967794 65.2993987 196.77967794 63 190 C63.66 190.33 64.32 190.66 65 191 C65.33 190.34 65.66 189.68 66 189 C66.66 189 67.32 189 68 189 C68.02505615 189.96599121 68.0501123 190.93198242 68.07592773 191.92724609 C68.6911097 216.97823982 68.6911097 216.97823982 70 242 C70.56976563 241.84273437 71.13953125 241.68546875 71.7265625 241.5234375 C76.11859059 240.51221454 80.78712336 239.87328073 84.91796875 241.9765625 C86.5625 243.25 86.5625 243.25 89 246 C89 247.32 89 248.64 89 250 C88.18015625 250.35191406 87.3603125 250.70382812 86.515625 251.06640625 C85.43796875 251.56011719 84.3603125 252.05382812 83.25 252.5625 C82.18265625 253.03816406 81.1153125 253.51382813 80.015625 254.00390625 C76.27665148 256.47879675 74.18673309 258.70119498 73 263 C72.78630809 267.62545851 73.23960481 272.14737128 73.6875 276.75 C73.92004609 279.52508925 74.13406518 282.3015201 74.34765625 285.078125 C74.40487854 285.79863037 74.46210083 286.51913574 74.52105713 287.26147461 C75.1686172 295.66518021 75.40834147 304.07598766 75.625 312.5 C75.65501602 313.57815979 75.65501602 313.57815979 75.68563843 314.67810059 C75.78137489 318.11987833 75.86586078 321.56132636 75.92675781 325.00390625 C75.97657628 327.72200162 76.04344843 330.43552884 76.12792969 333.15234375 C76.15643163 334.48696164 76.18413249 335.82159695 76.2109375 337.15625 C76.2423584 338.32994141 76.2737793 339.50363281 76.30615234 340.71289062 C75.95584931 344.47403897 74.98491336 346.80237346 73 350 C70.31182823 351.79211451 69.0334332 352.37952235 66.015625 353.03515625 C65.24476562 353.20466797 64.47390625 353.37417969 63.6796875 353.54882812 C62.87789063 353.71833984 62.07609375 353.88785156 61.25 354.0625 C60.46367188 354.23587891 59.67734375 354.40925781 58.8671875 354.58789062 C51.0485285 356.28279926 43.51119454 357.16305695 35.515625 357.203125 C34.61938416 357.20882507 33.72314331 357.21452515 32.79974365 357.22039795 C30.91045292 357.22980354 29.02114612 357.23636416 27.13183594 357.24023438 C24.27248869 357.24992379 21.41386604 357.28098305 18.5546875 357.3125 C-6.08440745 357.45673541 -6.08440745 357.45673541 -13.81640625 349.91015625 C-16.7588522 345.16145636 -15.51951051 339.517065 -14.4453125 334.3125 C-13.94629692 332.2491547 -13.43730913 330.18821148 -12.921875 328.12890625 C-7.28451558 304.1701287 -4.91509285 278.5649549 -4 254 C-3.95633301 252.90719727 -3.91266602 251.81439453 -3.86767578 250.68847656 C-3.52269631 241.85839583 -3.26016168 233.02872067 -3.05328369 224.19445801 C-2.9990894 221.96249736 -2.93813348 219.73078899 -2.87646484 217.49902344 C-2.77773018 213.81001422 -2.70824815 210.12141633 -2.65896606 206.431427 C-2.63648763 205.02914036 -2.60542639 203.62696262 -2.56539917 202.22506714 C-2.51168122 200.2716526 -2.49337903 198.3173619 -2.4765625 196.36328125 C-2.45674316 195.25251221 -2.43692383 194.14174316 -2.41650391 192.99731445 C-3.18995822 189.02421878 -4.95133763 187.56358275 -8 185 C-9.99550435 183.68817916 -9.99550435 183.68817916 -12 182.8125 C-12.680625 182.49410156 -13.36125 182.17570313 -14.0625 181.84765625 C-16.35581904 180.84432917 -18.65598452 179.87900581 -21 179 C-20.50233954 175.31731261 -19.93714041 173.34971233 -17 171 C-12.66465565 168.83232782 -6.7783755 169.95315318 -2 170 C-0.92180728 152.0375919 -0.88050167 134.10437677 -0.93153763 116.11868834 C-0.94166875 112.06068278 -0.94505652 108.00267188 -0.94897461 103.94465637 C-0.95995731 93.69225815 -0.97958253 83.43988308 -1 73.1875 C-1.02208486 62.04073154 -1.04256813 50.89397143 -1.05341816 39.74718553 C-1.0584011 34.9270615 -1.06825682 30.10697938 -1.08184814 25.28687227 C-1.08927473 22.30847073 -1.09261612 19.33007504 -1.0948143 16.3516655 C-1.09669451 14.96687664 -1.10031154 13.58208896 -1.10574722 12.19730949 C-1.1129047 10.31585223 -1.11341545 8.4343731 -1.11352539 6.55290222 C-1.115746 5.49836947 -1.11796661 4.44383673 -1.12025452 3.35734844 C-1 1 -1 1 0 0 Z M2 147 C0.98105924 152.84888043 0.88201547 158.50919169 0.9375 164.4375 C0.94201172 165.35982422 0.94652344 166.28214844 0.95117188 167.23242188 C0.96286062 169.48835048 0.97924545 171.74413967 1 174 C0.27941406 173.67644531 -0.44117187 173.35289062 -1.18359375 173.01953125 C-4.00933228 171.99662174 -6.07603166 171.70134761 -9.0625 171.6875 C-9.89910156 171.67074219 -10.73570313 171.65398437 -11.59765625 171.63671875 C-14.46447879 172.07023826 -15.84332164 173.11228384 -18 175 C-17.30552922 178.21135624 -17.30552922 178.21135624 -14.41796875 179.4296875 C-12.27277352 180.38944836 -10.12694428 181.34779342 -7.98046875 182.3046875 C-4.4874707 184.29153042 -3.08289967 185.54542796 -1 189 C-0.4262877 192.53199772 -0.4878023 196.01868022 -0.5390625 199.58984375 C-0.53911789 200.63355637 -0.53917328 201.67726898 -0.53923035 202.75260925 C-0.54634962 206.14806269 -0.58417609 209.54229676 -0.625 212.9375 C-0.64071467 215.28043292 -0.65593096 217.62336923 -0.6706543 219.96630859 C-0.80096351 235.49235704 -1.27566787 250.92092534 -2.67480469 266.38916016 C-2.97335633 269.70415922 -3.24864475 273.02000992 -3.51651001 276.33757019 C-4.70568273 291.00515007 -5.94782795 305.58088228 -9 320 C-9.54911645 322.66023269 -10.09418281 325.32122348 -10.63500977 327.9831543 C-10.99261223 329.73355752 -11.35722944 331.48254843 -11.73022461 333.22973633 C-13.54600021 341.11813826 -13.54600021 341.11813826 -11.5625 348.6875 C-5.08610799 354.53204889 4.55374603 355.14960277 12.921875 355.2734375 C13.69138992 355.28587494 14.46090485 355.29831238 15.2537384 355.31112671 C29.52039257 355.49676946 43.52392734 355.61890063 57.5625 352.75 C58.56442383 352.54552246 59.56634766 352.34104492 60.59863281 352.13037109 C65.58279561 350.97230166 69.3726757 349.82760601 73 346 C73.92675515 343.21973456 74.1076543 341.6883623 74.0534668 338.83349609 C74.03289215 337.57219627 74.03289215 337.57219627 74.01190186 336.28541565 C73.99121643 335.37396286 73.97053101 334.46251007 73.94921875 333.5234375 C73.93103088 332.57343369 73.91284302 331.62342987 73.894104 330.64463806 C73.83190498 327.55457619 73.76042654 324.46482613 73.6875 321.375 C73.66454865 320.33000336 73.64159729 319.28500671 73.61795044 318.20834351 C73.30913266 304.39377087 72.77165447 290.6809535 71.40234375 276.92578125 C70.12314325 263.17126433 70.12314325 263.17126433 72.3125 257.75 C76.32450764 253.64468986 81.06123903 250.87810553 86 248 C85.32238055 244.96280388 85.32238055 244.96280388 83.25 243.796875 C80.58164322 242.85183197 78.80277013 242.92528883 76 243.25 C75.154375 243.33765625 74.30875 243.4253125 73.4375 243.515625 C70.97679321 244.00461161 69.20694253 244.84170511 67 246 C67.01047363 245.00145996 67.02094727 244.00291992 67.03173828 242.97412109 C67.06808458 239.2505251 67.09095346 235.52694464 67.10986328 231.80322266 C67.11988763 230.19512287 67.13351066 228.58704115 67.15087891 226.97900391 C67.17528488 224.66043624 67.18651886 222.34211071 67.1953125 220.0234375 C67.20563507 219.31069672 67.21595764 218.59795593 67.22659302 217.86361694 C67.22755636 213.52556802 66.73924917 209.98579461 65 206 C62.95966359 204.13188083 61.04961654 202.58551148 58.8125 201 C53.27355688 196.87442237 48.13431183 192.50508341 43.125 187.75 C42.49263428 187.15002197 41.86026855 186.55004395 41.20874023 185.93188477 C40.00664569 184.7904107 38.80488546 183.64858443 37.60351562 182.50634766 C35.57163239 180.59759011 33.48563907 178.7585213 31.375 176.9375 C26.79929449 172.97907382 22.71636392 168.69762753 18.6875 164.1875 C14.6092822 159.6266931 10.3667756 155.28261933 6 151 C4.66549861 149.66783574 3.33186248 148.33480257 2 147 Z " fill="#010702" transform="translate(21,31)"/>
<path d="M0 0 C0.99 0.33 1.98 0.66 3 1 C3.07654536 5.51617599 3.10228696 9.59085217 2 14 C2.66 14 3.32 14 4 14 C2.8749871 35.87956115 -5.22469638 56.00893842 -19 73 C-19.81597656 74.02351563 -20.63195312 75.04703125 -21.47265625 76.1015625 C-27.94522498 83.5245084 -36.59488179 89.88455624 -45 95 C-45.66 95 -46.32 95 -47 95 C-47 95.66 -47 96.32 -47 97 C-49.1328125 98.62890625 -49.1328125 98.62890625 -52.125 100.5625 C-53.21941406 101.27535156 -54.31382812 101.98820312 -55.44140625 102.72265625 C-57.79984195 104.23604559 -60.16330905 105.74146984 -62.52734375 107.24609375 C-69.87367232 111.92573652 -77.06747805 116.71324749 -84 122 C-84.67933594 122.51175781 -85.35867187 123.02351563 -86.05859375 123.55078125 C-92.32725114 128.55222618 -97.0143802 135.47878464 -98.44140625 143.47265625 C-98.89043782 153.0761378 -94.7923571 159.70482239 -88.5546875 166.76953125 C-83.95181347 171.46389972 -79.06678031 175.81439887 -74 180 C-77.75 181.125 -77.75 181.125 -80 180 C-80.86625 178.88625 -80.86625 178.88625 -81.75 177.75 C-83.89819348 174.91379924 -83.89819348 174.91379924 -86.75 172.875 C-93.07611261 167.78835474 -98.7651371 159.82202014 -101 152 C-101.91316749 143.46840659 -101.08657869 136.24105482 -95.984375 129.23046875 C-83.83804594 115.01628305 -66.96896589 105.51057974 -51.47851562 95.35498047 C-45.09414098 91.14965325 -38.9631666 86.78193605 -33 82 C-31.989375 81.236875 -30.97875 80.47375 -29.9375 79.6875 C-15.9700965 66.90881169 -6.02194748 48.35900733 -2 30 C-2 28.68 -2 27.36 -2 26 C-2.72703125 27.54107422 -2.72703125 27.54107422 -3.46875 29.11328125 C-18.57692339 60.58705483 -44.70415793 81.23341519 -77.25244141 93.1953125 C-80.78891059 94.43495117 -84.33071136 95.65790737 -87.875 96.875 C-104.5238822 102.63090402 -121.21928799 109.49712955 -134 122 C-134.6703125 122.65484375 -135.340625 123.3096875 -136.03125 123.984375 C-142.83087784 131.18737059 -146.87772735 139.63253373 -147.5 149.5 C-147.71681305 152.93803558 -147.90942268 155.72826805 -149 159 C-149.66 158.67 -150.32 158.34 -151 158 C-150.60898063 142.06596052 -147.21827727 131.82217212 -135.97265625 119.83984375 C-120.94289711 105.76168947 -101.82954615 98.72259698 -82.75 91.9375 C-51.81938675 80.91955508 -23.50968675 63.44638739 -8.68359375 33.00097656 C-4.16484583 23.3317782 -1.62384377 14.18666841 -1.17578125 3.484375 C-1 1 -1 1 0 0 Z " fill="#240000" transform="translate(276,104)"/>
<path d="M0 0 C0.88830505 -0.00029205 1.77661011 -0.00058411 2.6918335 -0.00088501 C5.61911896 0.00050496 8.54614783 0.01605055 11.47338867 0.03173828 C13.50648357 0.03546959 15.53958027 0.03831601 17.57267761 0.04031372 C22.91727688 0.04794085 28.26176702 0.06758151 33.60632324 0.08972168 C39.06264774 0.11019988 44.51898992 0.11931966 49.9753418 0.12939453 C60.67656155 0.15082822 71.3777004 0.18495313 82.07885742 0.22705078 C82.07885742 0.55705078 82.07885742 0.88705078 82.07885742 1.22705078 C80.92063477 1.21544922 79.76241211 1.20384766 78.5690918 1.19189453 C74.19243263 1.15888909 69.81727 1.17954256 65.44067383 1.21484375 C63.56144898 1.22285955 61.68210508 1.21711316 59.80297852 1.19628906 C41.13334975 1.00690148 28.58017136 6.26896896 14.07885742 18.22705078 C13.44850586 18.74396484 12.8181543 19.26087891 12.16870117 19.79345703 C-2.1640805 32.82029048 -9.82461027 54.26172775 -11.20678711 73.12548828 C-11.30205989 76.48436934 -11.34365733 79.82688327 -11.31225586 83.18603516 C-11.29614749 85.22642802 -11.31222571 87.26484151 -11.33129883 89.30517578 C-11.34614607 98.28114568 -10.15695845 106.54077763 -7.92114258 115.22705078 C-7.71279785 116.07879883 -7.50445312 116.93054688 -7.28979492 117.80810547 C0.08920621 146.91927703 15.67981765 172.78962322 33.08276367 196.94189453 C35.68496585 200.58302654 37.93897299 204.29782533 40.07885742 208.22705078 C39.41885742 208.55705078 38.75885742 208.88705078 38.07885742 209.22705078 C34.82885742 204.35205078 34.82885742 204.35205078 33.75976562 202.74291992 C31.61180701 199.51297235 29.44740973 196.29538338 27.26245117 193.09033203 C0.9533459 154.34940405 -21.07713896 111.06088276 -12.73852539 62.87280273 C-8.33533263 40.888777 2.15692724 21.97551302 21.07885742 9.22705078 C24.71489169 7.16872472 28.38779049 5.1847169 32.07885742 3.22705078 C26.52880893 3.10282449 20.9795816 3.01241761 15.4284668 2.95239258 C13.54290659 2.92735301 11.65744244 2.89331079 9.7722168 2.84985352 C7.05127179 2.78873292 4.33161715 2.76073585 1.61010742 2.73876953 C0.35961609 2.70005989 0.35961609 2.70005989 -0.9161377 2.66056824 C-7.11279912 2.65764381 -11.08809169 4.36540172 -15.92114258 8.22705078 C-20.73924224 13.16869146 -21.0385312 17.60487221 -21.07936096 24.29512024 C-21.08914978 25.51363174 -21.0989386 26.73214325 -21.10902405 27.98757935 C-21.11492738 29.32952842 -21.12073788 30.6714779 -21.12646484 32.01342773 C-21.13604967 33.43286928 -21.1460601 34.852308 -21.15646362 36.27174377 C-21.18345331 40.11841438 -21.20449493 43.96509719 -21.22446561 47.81180978 C-21.24636185 51.83437578 -21.27373272 55.85690445 -21.30052185 59.87944031 C-21.35039959 67.49368632 -21.39535663 75.1079531 -21.43854421 82.72223967 C-21.48795867 91.39210647 -21.54286117 100.0619358 -21.59822381 108.73176634 C-21.71196832 126.56349302 -21.81882371 144.39525507 -21.92114258 162.22705078 C-22.25114258 162.22705078 -22.58114258 162.22705078 -22.92114258 162.22705078 C-23.16875005 143.068693 -23.38727507 123.91021283 -23.57135487 104.75113678 C-23.6575051 95.85487026 -23.7531043 86.9588942 -23.87109375 78.06298828 C-23.97393113 70.30766448 -24.05889124 62.55238405 -24.1225521 54.7966361 C-24.15686852 50.69142518 -24.20002095 46.58674352 -24.26459694 42.48188782 C-24.32515685 38.61434176 -24.36172042 34.74729438 -24.38027954 30.87932587 C-24.39123062 29.46353912 -24.41077702 28.04778726 -24.43979454 26.63225555 C-24.59943652 18.57752771 -24.47865433 12.42063961 -18.92114258 6.22705078 C-13.03630069 0.63645099 -7.77742355 -0.06714038 0 0 Z " fill="#290000" transform="translate(44.921142578125,12.77294921875)"/>
<path d="M0 0 C0.99 0 1.98 0 3 0 C3.76776475 4.0752634 4.11902034 7.91005447 4.09765625 12.0546875 C4.09443359 13.16328125 4.09121094 14.271875 4.08789062 15.4140625 C4.07951172 16.55617188 4.07113281 17.69828125 4.0625 18.875 C4.05798828 20.0403125 4.05347656 21.205625 4.04882812 22.40625 C4.03708781 25.27088645 4.0206657 28.13541633 4 31 C3.34 31 2.68 31 2 31 C2.33 26.71 2.66 22.42 3 18 C2.01 18 1.02 18 0 18 C-0.32871094 19.21623047 -0.32871094 19.21623047 -0.6640625 20.45703125 C-7.43372361 44.09580725 -23.65975898 63.09272584 -45 75 C-59.5354568 82.57431631 -74.69685658 86.2010493 -90.78457642 88.57904053 C-127.4065359 93.47978901 -127.4065359 93.47978901 -157 114 C-163.15084071 122.75476805 -166.59834159 131.60334714 -169 142 C-169.66 141.34 -170.32 140.68 -171 140 C-170.4303953 128.41073519 -163.66453798 115.59917727 -155.55615234 107.5703125 C-148.52245566 101.27267449 -140.90701077 97.10448974 -132 94 C-130.67319214 93.52397339 -130.67319214 93.52397339 -129.31958008 93.03833008 C-118.10395414 89.29149794 -106.52681142 87.85976814 -94.86450195 86.14819336 C-65.7822132 81.84186019 -36.24957503 72.3046227 -17.90258789 47.73583984 C-7.02677304 32.82205927 -1.92762587 18.33780924 0 0 Z " fill="#080000" transform="translate(276,87)"/>
<path d="M0 0 C4.90256521 3.87644691 8.46691471 7.90001501 9.6875 14.125 C9.77443426 20.15606417 8.70896747 24.45140267 4.6875 29.125 C-0.57640626 33.336125 -5.8501596 35.48902897 -12.625 35 C-17.85022316 34.27027056 -22.52619478 32.27334159 -27.3125 30.125 C-19.94322687 38.38751835 -11.86248757 38.8812428 -1.3125 40.125 C-5.48658358 44.65844177 -9.52406212 45.80257975 -15.515625 46.3125 C-25.16534364 46.5824222 -32.8737825 44.45367632 -40.3125 38.125 C-45.7920651 32.08443181 -46.61533117 26.83452568 -46.53125 18.94140625 C-45.95475907 11.51908557 -42.40625405 4.90144594 -36.875 -0.0625 C-24.62977668 -8.72375552 -12.6979866 -7.18753958 0 0 Z M-40.0859375 7.37890625 C-43.20356902 11.81706323 -43.60857862 15.01525916 -43.625 20.5 C-43.64175781 21.78648438 -43.65851563 23.07296875 -43.67578125 24.3984375 C-43.10392643 30.26456117 -40.93230305 34.06339422 -36.5 37.875 C-35.53126953 38.73351562 -35.53126953 38.73351562 -34.54296875 39.609375 C-29.08712569 43.31667291 -23.7846698 43.38985289 -17.4375 43.25 C-16.261875 43.23646484 -16.261875 43.23646484 -15.0625 43.22265625 C-13.14569945 43.19928063 -11.22905809 43.16341653 -9.3125 43.125 C-12.04610037 41.66872531 -14.64602445 40.7004355 -17.625 39.875 C-22.44673669 38.27040229 -26.13540424 36.1544873 -29.3125 32.125 C-30.65988247 29.19048728 -31.57958409 26.26606818 -32.3125 23.125 C-31.64863281 23.60710937 -30.98476562 24.08921875 -30.30078125 24.5859375 C-29.41777344 25.21757813 -28.53476563 25.84921875 -27.625 26.5 C-26.75488281 27.12648438 -25.88476562 27.75296875 -24.98828125 28.3984375 C-18.87862604 32.34072597 -13.46426069 32.9363342 -6.3125 32.125 C-0.92921311 30.47066765 2.56468406 27.87168024 5.6875 23.125 C7.58794462 19.32411076 7.42234989 15.24497806 6.6875 11.125 C2.44757385 3.91957637 -4.3760332 -0.63311367 -12.3125 -2.875 C-24.96748806 -4.18461205 -32.05602122 -2.33325506 -40.0859375 7.37890625 Z " fill="#100000" transform="translate(156.3125,59.875)"/>
<path d="M0 0 C0.66 0 1.32 0 2 0 C1.90460938 1.16917969 1.80921875 2.33835937 1.7109375 3.54296875 C1.59834603 5.09110142 1.48640086 6.6392812 1.375 8.1875 C1.31054688 8.95642578 1.24609375 9.72535156 1.1796875 10.51757812 C0.88474001 14.81275092 0.67190622 18.20681272 3 22 C5.41491667 24.23570228 5.41491667 24.23570228 8.375 26.25 C9.4676434 27.03748925 10.56008586 27.82525738 11.65234375 28.61328125 C12.21034668 29.0098291 12.76834961 29.40637695 13.34326172 29.81494141 C16.9224065 32.37509006 20.41946666 35.04711764 23.93359375 37.6953125 C26.0211857 39.26433065 28.11795829 40.82119118 30.22265625 42.3671875 C36.0434494 46.68396477 41.47966213 51.20109611 46.625 56.3125 C47.12193359 56.80403564 47.61886719 57.29557129 48.13085938 57.80200195 C52.11834535 61.86898877 55.42699295 65.54304388 55.4375 71.4375 C55.25614607 75.99401759 54.07322096 78.53277635 51 82 C45.06084656 87 45.06084656 87 42 87 C42 87.66 42 88.32 42 89 C37.7006869 91.08031279 33.3664394 93.06460524 29 95 C28.06542969 95.42539062 27.13085938 95.85078125 26.16796875 96.2890625 C15.96009914 100.34884469 1.86522599 101.34587806 -8.5625 97.375 C-10.06255281 96.62366006 -11.54239873 95.83070373 -13 95 C-14.29357422 94.34644531 -14.29357422 94.34644531 -15.61328125 93.6796875 C-22.75043042 89.98492569 -29.41192264 85.591097 -36 81 C-37.16208984 80.20142578 -37.16208984 80.20142578 -38.34765625 79.38671875 C-38.89292969 78.92910156 -39.43820313 78.47148437 -40 78 C-40 77.34 -40 76.68 -40 76 C-35.86789033 76.97865755 -32.8897866 78.66936251 -29.5 81.125 C-15.66619775 91.09869152 -2.49101523 98.14066689 15 96 C26.81605258 93.66707959 43.83953373 87.03539079 51.4375 77.125 C52.36073938 73.6372068 52.58872303 71.65008278 52 68 C43.82571276 54.58350681 29.72980335 45.72326603 17.30175781 36.67626953 C14.0415609 34.30201073 10.78917306 31.91965084 7.5625 29.5 C6.57378906 28.7678125 5.58507812 28.035625 4.56640625 27.28125 C0.86749884 23.9933323 -1.68733284 21.01113876 -2.4609375 16.03515625 C-2.29648011 10.34642558 -1.9516727 5.36709994 0 0 Z " fill="#010601" transform="translate(236,288)"/>
<path d="M0 0 C3.58193056 0.57006462 5.10029901 1.79584031 7.50390625 4.46484375 C8.48218384 5.5336377 8.48218384 5.5336377 9.48022461 6.62402344 C10.51095093 7.76919434 10.51095093 7.76919434 11.5625 8.9375 C25.45966091 24.00043061 41.02921972 36.53325657 58 48 C57.505 48.99 57.505 48.99 57 50 C53.4124787 48.66749209 50.1635377 47.169283 47 45 C47 44.34 47 43.68 47 43 C46.26652344 42.73960937 45.53304687 42.47921875 44.77734375 42.2109375 C39.86648252 40.06977437 36.07765254 36.42241222 32 33 C31.45069824 32.54238281 30.90139648 32.08476562 30.33544922 31.61328125 C19.22130106 22.336465 8.53355697 12.7991919 0 1 C0 0.67 0 0.34 0 0 Z " fill="#071D07" transform="translate(139,315)"/>
<path d="M0 0 C0.495 0.99 0.495 0.99 1 2 C-2.37400845 11.00713561 -8.05329679 18.5504027 -14 26 C-14.64453125 26.84949219 -15.2890625 27.69898438 -15.953125 28.57421875 C-22.39558788 36.20927494 -33.83369389 46.56306627 -44 48 C-40.84076214 44.51394443 -37.45281598 41.80568037 -33.625 39.0625 C-21.34451626 30.23436109 -11.64559306 19.58176812 -4.9375 5.8203125 C-3.7001367 3.41776542 -1.96256549 1.83172779 0 0 Z " fill="#1A0000" transform="translate(270,152)"/>
<path d="M0 0 C1.29550781 -0.02126953 1.29550781 -0.02126953 2.6171875 -0.04296875 C5.125 0.1875 5.125 0.1875 9.125 2.1875 C9.125 6.8075 9.125 11.4275 9.125 16.1875 C8.01125 15.300625 6.8975 14.41375 5.75 13.5 C1.18170114 10.05330857 -3.69633297 7.58581711 -8.875 5.1875 C-6.72990956 0.43765688 -5.10594247 0.03787791 0 0 Z " fill="#308E31" transform="translate(11.875,202.8125)"/>
<path d="M0 0 C4.81934633 0.87143991 7.05525874 3.97903293 10.1875 7.5 C16.67036856 14.59053386 23.3279565 21.4848894 30.10879517 28.2890625 C31.18803796 29.37306144 32.26522949 30.4591072 33.34017944 31.54736328 C40.22045442 38.50972383 47.29043672 44.94293803 55 51 C56.08815498 51.87516512 57.17560225 52.75121257 58.26171875 53.62890625 C59.46248047 54.58603516 59.46248047 54.58603516 60.6875 55.5625 C61.51636719 56.22378906 62.34523437 56.88507813 63.19921875 57.56640625 C63.79347656 58.03949219 64.38773437 58.51257813 65 59 C63.515 59.495 63.515 59.495 62 60 C59.70531734 58.32558443 57.66238916 56.64574904 55.5625 54.75 C54.94213867 54.2036792 54.32177734 53.6573584 53.68261719 53.09448242 C51.77681242 51.408784 49.88600332 49.70780612 48 48 C47.45005371 47.50258301 46.90010742 47.00516602 46.33349609 46.49267578 C43.82066832 44.21247387 41.32367413 41.91703418 38.8359375 39.609375 C35.27036159 36.32865226 31.62408627 33.14382873 27.9609375 29.97265625 C26 28 26 28 24.9765625 25.87109375 C23.71718689 23.45813009 22.42432905 23.13683226 20 22 C18.39453125 20.37109375 18.39453125 20.37109375 16.8125 18.4375 C13.39355514 14.38212818 9.71909127 10.6769132 5.91796875 6.98046875 C4 5 4 5 2 2 C1.67 3.98 1.34 5.96 1 8 C0.67 8 0.34 8 0 8 C0 5.36 0 2.72 0 0 Z " fill="#110D03" transform="translate(22,177)"/>
<path d="M0 0 C0.33 0 0.66 0 1 0 C1 2.31 1 4.62 1 7 C1.66 7 2.32 7 3 7 C2.39959155 18.67690925 1.1924788 35.08899751 -7.75 43.625 C-8.86375 44.305625 -8.86375 44.305625 -10 45 C-8.98598559 41.2559468 -7.89320594 37.62092102 -6.5 34 C-3.66714828 27.10190709 -3.66714828 27.10190709 -3.57421875 19.8125 C-4.08301715 15.2566538 -3.29359914 11.91716461 -2.0625 7.5625 C-1.86720703 6.83095703 -1.67191406 6.09941406 -1.47070312 5.34570312 C-0.99233665 3.56057944 -0.49782954 1.77979404 0 0 Z " fill="#270000" transform="translate(277,111)"/>
<path d="M0 0 C0.33 0 0.66 0 1 0 C1 8.39114792 -4.49420301 14.04474186 -9.828125 20.0625 C-19.51436386 29.51248913 -32.90829048 36.12888093 -45 42 C-45.66 41.34 -46.32 40.68 -47 40 C-45.90042969 39.43152344 -44.80085937 38.86304688 -43.66796875 38.27734375 C-20.43800199 26.53349916 -20.43800199 26.53349916 -4 7 C-3.23124745 5.66546588 -2.46052501 4.33206386 -1.6875 3 C-1.130625 2.01 -0.57375 1.02 0 0 Z " fill="#2A0000" transform="translate(209,119)"/>
<path d="M0 0 C0.33 0 0.66 0 1 0 C0.99097656 0.87140625 0.98195312 1.7428125 0.97265625 2.640625 C1.27961338 14.97229394 5.4587856 22.63818528 14 31.375 C17.88406764 35.05714363 21.87414163 38.59168221 26 42 C22.25 43.125 22.25 43.125 20 42 C19.4225 41.2575 18.845 40.515 18.25 39.75 C16.10180652 36.91379924 16.10180652 36.91379924 13.25 34.875 C6.92388739 29.78835474 1.2348629 21.82202014 -1 14 C-1.35570362 9.1569584 -1.54487909 4.63463728 0 0 Z " fill="#070000" transform="translate(176,242)"/>
<path d="M0 0 C6.18066623 0.57337695 11.42380832 2.51583723 17.1875 4.75 C25.65330935 7.95327921 34.07977141 10.49371469 42.91674805 12.45214844 C44.95740871 12.91440562 46.98121758 13.45000437 49 14 C49.495 14.99 49.495 14.99 50 16 C32.41851567 13.08947164 16.3407902 8.09668861 0 1 C0 0.67 0 0.34 0 0 Z " fill="#0F1305" transform="translate(133,268)"/>
<path d="M0 0 C1.58458008 0.02030273 1.58458008 0.02030273 3.20117188 0.04101562 C5.78049809 0.0760291 8.35871494 0.12513325 10.9375 0.1875 C10.9375 0.5175 10.9375 0.8475 10.9375 1.1875 C10.33389648 1.18637207 9.73029297 1.18524414 9.10839844 1.18408203 C-5.38064538 1.24760624 -15.31753419 2.14874751 -27.0625 11.1875 C-27.7225 10.8575 -28.3825 10.5275 -29.0625 10.1875 C-29.0625 9.5275 -29.0625 8.8675 -29.0625 8.1875 C-27.62890625 7.00390625 -27.62890625 7.00390625 -25.625 5.75 C-24.98691406 5.33878906 -24.34882812 4.92757812 -23.69140625 4.50390625 C-15.75382129 0.5292166 -8.82593958 -0.21716823 0 0 Z " fill="#280000" transform="translate(132.0625,41.8125)"/>
<path d="M0 0 C0.33 0 0.66 0 1 0 C0.85636473 1.37523135 0.70996483 2.75017402 0.5625 4.125 C0.48128906 4.89070313 0.40007812 5.65640625 0.31640625 6.4453125 C0.09579525 8.22654203 -0.18090401 10.00133194 -0.5 11.76757812 C-0.99442105 14.96393299 -1.20444372 18.04251864 -1.31640625 21.2734375 C-1.35830078 22.42714844 -1.40019531 23.58085938 -1.44335938 24.76953125 C-1.48267578 25.95933594 -1.52199219 27.14914063 -1.5625 28.375 C-1.60568359 29.58800781 -1.64886719 30.80101562 -1.69335938 32.05078125 C-1.79905513 35.03375032 -1.90115321 38.01679742 -2 41 C-2.33 41 -2.66 41 -3 41 C-3.25863963 36.58455497 -3.47638057 32.1679519 -3.6875 27.75 C-3.76033203 26.51507813 -3.83316406 25.28015625 -3.90820312 24.0078125 C-4.27174476 15.88158778 -3.68072032 8.7247185 -1 1 C-0.67 0.67 -0.34 0.34 0 0 Z " fill="#260000" transform="translate(93,99)"/>
<path d="M0 0 C3.47263143 0.56373887 4.91317065 1.60850967 7.125 4.3125 C7.87136719 5.20388672 7.87136719 5.20388672 8.6328125 6.11328125 C10 8 10 8 10.828125 9.87109375 C12.55159856 13.00207072 15.07969954 15.28868154 17.625 17.75 C18.140625 18.25660156 18.65625 18.76320313 19.1875 19.28515625 C20.45383339 20.52803902 21.7263144 21.76465276 23 23 C19.29129499 23 18.40782831 21.76956842 15.87402344 19.23950195 C15.3587207 18.70671631 14.84341797 18.17393066 14.3125 17.625 C13.78301758 17.08641357 13.25353516 16.54782715 12.70800781 15.99291992 C0 2.88610107 0 2.88610107 0 0 Z " fill="#0D330D" transform="translate(139,315)"/>
<path d="M0 0 C0.99 0.33 1.98 0.66 3 1 C2.3702828 8.24174781 0.62500775 15.49431079 -4.75 20.625 C-5.86375 21.305625 -5.86375 21.305625 -7 22 C-5.79610982 17.55486703 -4.38357862 13.29640739 -2.73046875 9 C-1.64983447 6.04125802 -0.82321205 3.03955219 0 0 Z " fill="#340000" transform="translate(274,134)"/>
<path d="M0 0 C0.99 0.33 1.98 0.66 3 1 C3.16383565 5.91506939 3.21487837 8.63176765 1 13 C0.24790373 15.5801843 -0.46094527 18.14788925 -1.125 20.75 C-1.30675781 21.44738281 -1.48851562 22.14476563 -1.67578125 22.86328125 C-2.12116452 24.57449065 -2.56112516 26.28710983 -3 28 C-3.66 28 -4.32 28 -5 28 C-4.46456089 23.39522363 -3.53921666 19.00560539 -2.4375 14.5 C-1.31969156 9.8127646 -0.78228833 5.78965676 -1 1 C-0.67 0.67 -0.34 0.34 0 0 Z " fill="#1D0000" transform="translate(276,104)"/>
<path d="M0 0 C0 0.66 0 1.32 0 2 C-1.82032492 3.38733501 -3.7089106 4.68574816 -5.625 5.9375 C-7.19121094 6.97197266 -7.19121094 6.97197266 -8.7890625 8.02734375 C-11.79303748 9.87285149 -14.82213103 11.47786757 -18 13 C-18.33 12.01 -18.66 11.02 -19 10 C-16.59063538 8.32183559 -14.17352207 6.65749199 -11.75 5 C-10.72712891 4.28457031 -10.72712891 4.28457031 -9.68359375 3.5546875 C-9.01972656 3.10351562 -8.35585937 2.65234375 -7.671875 2.1875 C-7.0644043 1.76855469 -6.45693359 1.34960938 -5.83105469 0.91796875 C-4 0 -4 0 0 0 Z " fill="#630000" transform="translate(229,199)"/>
<path d="M0 0 C0.66 0 1.32 0 2 0 C2.0816082 2.37570543 2.14077222 4.74855841 2.1875 7.125 C2.21263672 7.79015625 2.23777344 8.4553125 2.26367188 9.140625 C2.3332236 13.87014242 1.53781286 17.01285346 -1 21 C-1.99 21.66 -2.98 22.32 -4 23 C-4.99 22.67 -5.98 22.34 -7 22 C-6.195625 21.236875 -5.39125 20.47375 -4.5625 19.6875 C-0.69363459 15.62990945 -0.78639075 12.24522736 -0.4375 6.8125 C-0.35371094 5.54019531 -0.26992187 4.26789063 -0.18359375 2.95703125 C-0.12300781 1.98121094 -0.06242187 1.00539063 0 0 Z " fill="#000301" transform="translate(95,360)"/>
<path d="M0 0 C1.9375 0.8125 1.9375 0.8125 4 2 C5.18681726 5.56045177 5.09689832 8.43808337 5.0625 12.1875 C5.05347656 13.45980469 5.04445312 14.73210937 5.03515625 16.04296875 C5.02355469 17.01878906 5.01195312 17.99460937 5 19 C4.01 19 3.02 19 2 19 C1.93941406 18.04738281 1.87882813 17.09476563 1.81640625 16.11328125 C1.73261719 14.85902344 1.64882812 13.60476562 1.5625 12.3125 C1.48128906 11.07113281 1.40007812 9.82976562 1.31640625 8.55078125 C1.05508683 5.61819663 0.65201621 2.86558383 0 0 Z " fill="#220000" transform="translate(176,67)"/>
<path d="M0 0 C4.66666667 4 9.33333333 8 14 12 C10.25 13.125 10.25 13.125 8 12 C7.4225 11.2575 6.845 10.515 6.25 9.75 C3.7325909 6.67316666 1.1043715 4.46938642 -2 2 C-1.34 1.34 -0.68 0.68 0 0 Z " fill="#3E0000" transform="translate(188,272)"/>
<path d="M0 0 C0.66 0 1.32 0 2 0 C2 3.63 2 7.26 2 11 C-2.29 10.34 -6.58 9.68 -11 9 C-11 8.67 -11 8.34 -11 8 C-7.7 7.67 -4.4 7.34 -1 7 C-1.020625 6.030625 -1.04125 5.06125 -1.0625 4.0625 C-1 1 -1 1 0 0 Z " fill="#061206" transform="translate(20,194)"/>
<path d="M0 0 C0 0.66 0 1.32 0 2 C-9.34851835 6.03740638 -19.04375948 5.27599435 -29 5 C-29 4.67 -29 4.34 -29 4 C-23.39 4 -17.78 4 -12 4 C-12 3.34 -12 2.68 -12 2 C-10.56342755 1.66269158 -9.12569907 1.33030409 -7.6875 1 C-6.48673828 0.7215625 -6.48673828 0.7215625 -5.26171875 0.4375 C-3 0 -3 0 0 0 Z " fill="#370000" transform="translate(181,130)"/>
<path d="M0 0 C0.66 0 1.32 0 2 0 C2 0.66 2 1.32 2 2 C3.0828125 2.4021875 3.0828125 2.4021875 4.1875 2.8125 C6.97590126 3.98982498 9.44095724 5.39145884 12 7 C12.33 6.01 12.66 5.02 13 4 C13.33 5.65 13.66 7.3 14 9 C16.31 9.66 18.62 10.32 21 11 C17.95913425 12.3565767 16.84183525 11.94057287 13.65234375 10.7421875 C12.40776197 10.13248822 11.16957661 9.50958982 9.9375 8.875 C9.00067383 8.43027344 9.00067383 8.43027344 8.04492188 7.9765625 C4.02059772 5.94936826 1.92541749 4.07652495 0 0 Z " fill="#180401" transform="translate(115,256)"/>
<path d="M0 0 C3.06382739 0.32432407 3.98970965 0.98901487 6.140625 3.28515625 C7.18476563 4.65994141 7.18476563 4.65994141 8.25 6.0625 C8.95640625 6.98160156 9.6628125 7.90070313 10.390625 8.84765625 C10.92171875 9.55792969 11.4528125 10.26820313 12 11 C10.68 11.33 9.36 11.66 8 12 C6.66382103 10.18959679 5.33112616 8.3766216 4 6.5625 C3.2575 5.55316406 2.515 4.54382813 1.75 3.50390625 C0 1 0 1 0 0 Z " fill="#061606" transform="translate(130,303)"/>
<path d="M0 0 C0.33 0 0.66 0 1 0 C1.2494783 7.29031024 0.72330907 13.90673679 -1 21 C-1.99 20.34 -2.98 19.68 -4 19 C-3.566875 17.081875 -3.566875 17.081875 -3.125 15.125 C-2.00617536 10.09828073 -0.9916404 5.05314632 0 0 Z " fill="#730000" transform="translate(277,111)"/>
<path d="M0 0 C0.59296875 0.22171875 1.1859375 0.4434375 1.796875 0.671875 C0.046875 6.421875 0.046875 6.421875 -2.203125 8.671875 C-2.203125 7.021875 -2.203125 5.371875 -2.203125 3.671875 C-5.173125 6.146875 -5.173125 6.146875 -8.203125 8.671875 C-8.203125 5.19064369 -7.79161196 4.80666864 -5.453125 2.421875 C-4.94265625 1.88046875 -4.4321875 1.3390625 -3.90625 0.78125 C-2.203125 -0.328125 -2.203125 -0.328125 0 0 Z " fill="#1C0000" transform="translate(212.203125,112.328125)"/>
<path d="M0 0 C0 4.19902873 -2.20971967 6.12355899 -5 9 C-7.61000857 11.40255872 -10.2821458 13.72050938 -13 16 C-13.66 15.67 -14.32 15.34 -15 15 C-10.3143947 9.52331848 -5.59753384 4.54799625 0 0 Z " fill="#010000" transform="translate(257,174)"/>
<path d="M0 0 C0.33 0 0.66 0 1 0 C1.33895656 1.72807318 1.67091525 3.45751974 2 5.1875 C2.185625 6.15042969 2.37125 7.11335937 2.5625 8.10546875 C2.96877612 10.7934206 3.07933572 13.28771019 3 16 C2.01 15.67 1.02 15.34 0 15 C-0.75612577 9.76528314 -1.2063366 5.22745859 0 0 Z " fill="#220000" transform="translate(92,154)"/>
<path d="M0 0 C0.33 0.99 0.66 1.98 1 3 C0.33333333 4.33333333 -0.33333333 5.66666667 -1 7 C-1.28480806 9.0742625 -1.48874224 11.16071439 -1.625 13.25 C-1.69976562 14.32765625 -1.77453125 15.4053125 -1.8515625 16.515625 C-1.90054688 17.33546875 -1.94953125 18.1553125 -2 19 C-2.33 19 -2.66 19 -3 19 C-3.25034126 16.9399629 -3.47443346 14.87672534 -3.6875 12.8125 C-3.81511719 11.66394531 -3.94273438 10.51539062 -4.07421875 9.33203125 C-3.98469835 5.31303645 -2.84769909 2.84769909 0 0 Z " fill="#270000" transform="translate(115,66)"/>
<path d="M0 0 C0.66 0.33 1.32 0.66 2 1 C1.67 1.33 1.34 1.66 1 2 C4.3 2.33 7.6 2.66 11 3 C11 3.33 11 3.66 11 4 C8.87527424 4.05386629 6.75016348 4.09273071 4.625 4.125 C2.84996094 4.15980469 2.84996094 4.15980469 1.0390625 4.1953125 C-2 4 -2 4 -4 2 C-2.125 0.9375 -2.125 0.9375 0 0 Z " fill="#AA0000" transform="translate(152,112)"/>
<path d="M0 0 C2.15377564 2.62198774 3.40072174 4.64404172 4 8 C3.01 8.495 3.01 8.495 2 9 C-1.07692308 4.56923077 -1.07692308 4.56923077 -0.6875 1.6875 C-0.460625 1.130625 -0.23375 0.57375 0 0 Z " fill="#210000" transform="translate(177,256)"/>
<path d="M0 0 C1.125 1.6875 1.125 1.6875 2 4 C1.125 6.75 1.125 6.75 0 9 C-0.66 8.01 -1.32 7.02 -2 6 C-1.125 2.8125 -1.125 2.8125 0 0 Z " fill="#390000" transform="translate(178,236)"/>
<path d="M0 0 C5.75 1.625 5.75 1.625 8 5 C4 5 4 5 2 4 C0.875 1.9375 0.875 1.9375 0 0 Z " fill="#260000" transform="translate(194,280)"/>
<path d="M0 0 C2.56687367 3.8503105 1.83288724 5.58569763 1 10 C0.34 9.67 -0.32 9.34 -1 9 C-0.67 6.03 -0.34 3.06 0 0 Z " fill="#380000" transform="translate(33,72)"/>
</svg>
